<?xml version="1.0" encoding="utf-8" standalone="no"?>
<!DOCTYPE svg PUBLIC "-//W3C//DTD SVG 1.1//EN"
  "http://www.w3.org/Graphics/SVG/1.1/DTD/svg11.dtd">
<svg xmlns:xlink="http://www.w3.org/1999/xlink" width="416.16pt" height="230.616pt" viewBox="0 0 416.16 230.616" xmlns="http://www.w3.org/2000/svg" version="1.1">
 <metadata>
  <rdf:RDF xmlns:dc="http://purl.org/dc/elements/1.1/" xmlns:cc="http://creativecommons.org/ns#" xmlns:rdf="http://www.w3.org/1999/02/22-rdf-syntax-ns#">
   <cc:Work>
    <dc:type rdf:resource="http://purl.org/dc/dcmitype/StillImage"/>
    <dc:date>2026-06-18T11:24:43.608777</dc:date>
    <dc:format>image/svg+xml</dc:format>
    <dc:creator>
     <cc:Agent>
      <dc:title>Matplotlib v3.10.6, https://matplotlib.org/</dc:title>
     </cc:Agent>
    </dc:creator>
   </cc:Work>
  </rdf:RDF>
 </metadata>
 <defs>
  <style type="text/css">*{stroke-linejoin: round; stroke-linecap: butt}</style>
 </defs>
 <g id="figure_1">
  <g id="patch_1">
   <path d="M 0 230.616
L 416.16 230.616
L 416.16 0
L 0 0
z
" style="fill: #ffffff"/>
  </g>
  <g id="axes_1">
   <g id="patch_2">
    <path d="M 21.15 88.974
L 92.574 88.974
Q 94.527 88.974 94.527 87.0336
L 94.527 54.8784
Q 94.527 52.938 92.574 52.938
L 21.15 52.938
Q 19.197 52.938 19.197 54.8784
L 19.197 87.0336
Q 19.197 88.974 21.15 88.974
z
" clip-path="url(#pa739f603cc)" style="fill: #f8fafc; stroke: #1f2933; stroke-width: 0.85; stroke-linejoin: miter"/>
   </g>
   <g id="patch_3">
    <path d="M 110.988 88.974
L 182.412 88.974
Q 184.365 88.974 184.365 87.0336
L 184.365 54.8784
Q 184.365 52.938 182.412 52.938
L 110.988 52.938
Q 109.035 52.938 109.035 54.8784
L 109.035 87.0336
Q 109.035 88.974 110.988 88.974
z
" clip-path="url(#pa739f603cc)" style="fill: #f8fafc; stroke: #1f2933; stroke-width: 0.85; stroke-linejoin: miter"/>
   </g>
   <g id="patch_4">
    <path d="M 200.826 95.0724
L 280.062 95.0724
Q 282.015 95.0724 282.015 93.132
L 282.015 48.78
Q 282.015 46.8396 280.062 46.8396
L 200.826 46.8396
Q 198.873 46.8396 198.873 48.78
L 198.873 93.132
Q 198.873 95.0724 200.826 95.0724
z
" clip-path="url(#pa739f603cc)" style="fill: #eaf3fb; stroke: #1f2933; stroke-width: 0.85; stroke-linejoin: miter"/>
   </g>
   <g id="patch_5">
    <path d="M 305.172 88.974
L 376.596 88.974
Q 378.549 88.974 378.549 87.0336
L 378.549 54.8784
Q 378.549 52.938 376.596 52.938
L 305.172 52.938
Q 303.219 52.938 303.219 54.8784
L 303.219 87.0336
Q 303.219 88.974 305.172 88.974
z
" clip-path="url(#pa739f603cc)" style="fill: #eaf8ef; stroke: #1f2933; stroke-width: 0.85; stroke-linejoin: miter"/>
   </g>
   <g id="patch_6">
    <path d="M 94.572501 70.956
Q 100.944528 70.956 106.366227 70.956
" clip-path="url(#pa739f603cc)" style="fill: none; stroke: #1f2933; stroke-width: 0.85; stroke-linecap: round"/>
    <path d="M 102.366227 68.956
L 106.366227 70.956
L 102.366227 72.956
z
" clip-path="url(#pa739f603cc)" style="fill: #1f2933; stroke: #1f2933; stroke-width: 0.85; stroke-linecap: round"/>
   </g>
   <g id="patch_7">
    <path d="M 184.410501 70.956
Q 190.782528 70.956 196.204227 70.956
" clip-path="url(#pa739f603cc)" style="fill: none; stroke: #1f2933; stroke-width: 0.85; stroke-linecap: round"/>
    <path d="M 192.204227 68.956
L 196.204227 70.956
L 192.204227 72.956
z
" clip-path="url(#pa739f603cc)" style="fill: #1f2933; stroke: #1f2933; stroke-width: 0.85; stroke-linecap: round"/>
   </g>
   <g id="patch_8">
    <path d="M 282.061727 70.956
Q 291.778963 70.956 300.545871 70.956
" clip-path="url(#pa739f603cc)" style="fill: none; stroke: #1f2933; stroke-width: 0.85; stroke-linecap: round"/>
    <path d="M 296.545871 68.956
L 300.545871 70.956
L 296.545871 72.956
z
" clip-path="url(#pa739f603cc)" style="fill: #1f2933; stroke: #1f2933; stroke-width: 0.85; stroke-linecap: round"/>
   </g>
   <g id="patch_9">
    <path d="M 43.47 148.2948
L 169.02 148.2948
Q 170.973 148.2948 170.973 146.3544
L 170.973 114.1992
Q 170.973 112.2588 169.02 112.2588
L 43.47 112.2588
Q 41.517 112.2588 41.517 114.1992
L 41.517 146.3544
Q 41.517 148.2948 43.47 148.2948
z
" clip-path="url(#pa739f603cc)" style="fill: #fbfaf7; stroke: #1f2933; stroke-width: 0.85; stroke-linejoin: miter"/>
   </g>
   <g id="patch_10">
    <path d="M 238.77 148.2948
L 364.32 148.2948
Q 366.273 148.2948 366.273 146.3544
L 366.273 114.1992
Q 366.273 112.2588 364.32 112.2588
L 238.77 112.2588
Q 236.817 112.2588 236.817 114.1992
L 236.817 146.3544
Q 236.817 148.2948 238.77 148.2948
z
" clip-path="url(#pa739f603cc)" style="fill: #fbfaf7; stroke: #1f2933; stroke-width: 0.85; stroke-linejoin: miter"/>
   </g>
   <g id="patch_11">
    <path d="M 172.134501 130.2768
Q 203.614104 130.2768 234.143379 130.2768
" clip-path="url(#pa739f603cc)" style="fill: none; stroke: #1f2933; stroke-width: 0.85; stroke-linecap: round"/>
    <path d="M 230.143379 128.2768
L 234.143379 130.2768
L 230.143379 132.2768
z
" clip-path="url(#pa739f603cc)" style="fill: #1f2933; stroke: #1f2933; stroke-width: 0.85; stroke-linecap: round"/>
   </g>
   <g id="patch_12">
    <path d="M 298.316338 112.847748
Q 277.83153 103.943465 258.218274 95.418025
" clip-path="url(#pa739f603cc)" style="fill: none; stroke: #1f2933; stroke-width: 0.85; stroke-linecap: round"/>
    <path d="M 261.089405 98.846816
L 258.218274 95.418025
L 262.683985 95.178395
z
" clip-path="url(#pa739f603cc)" style="fill: #1f2933; stroke: #1f2933; stroke-width: 0.85; stroke-linecap: round"/>
   </g>
   <g id="line2d_1">
    <path d="M 37.89 169.0848
L 378.27 169.0848
" clip-path="url(#pa739f603cc)" style="fill: none; stroke: #d0d5dd; stroke-width: 0.75; stroke-linecap: round"/>
   </g>
   <g id="text_1">
    <!-- Benchmark mechanism -->
    <g style="fill: #1f2933" transform="translate(9.99 26.018675) scale(0.1 -0.1)">
     <defs>
      <path id="TimesNewRomanPS-BoldMT-42" d="M 2847 2247
Q 3450 2106 3694 1906
Q 4044 1622 4044 1169
Q 4044 691 3659 378
Q 3188 0 2288 0
L 134 0
L 134 116
Q 428 116 533 170
Q 638 225 680 312
Q 722 400 722 744
L 722 3494
Q 722 3838 680 3927
Q 638 4016 531 4069
Q 425 4122 134 4122
L 134 4238
L 2166 4238
Q 2894 4238 3197 4108
Q 3500 3978 3675 3720
Q 3850 3463 3850 3172
Q 3850 2866 3628 2627
Q 3406 2388 2847 2247
z
M 1709 2331
Q 2153 2331 2364 2431
Q 2575 2531 2687 2712
Q 2800 2894 2800 3175
Q 2800 3456 2689 3636
Q 2578 3816 2372 3909
Q 2166 4003 1709 4000
L 1709 2331
z
M 1709 2088
L 1709 728
L 1706 572
Q 1706 403 1792 317
Q 1878 231 2047 231
Q 2297 231 2508 342
Q 2719 453 2831 664
Q 2944 875 2944 1134
Q 2944 1431 2806 1667
Q 2669 1903 2428 1997
Q 2188 2091 1709 2088
z
" transform="scale(0.015625)"/>
      <path id="TimesNewRomanPS-BoldMT-65" d="M 2691 1566
L 1088 1566
Q 1116 984 1397 647
Q 1613 388 1916 388
Q 2103 388 2256 492
Q 2409 597 2584 869
L 2691 800
Q 2453 316 2165 114
Q 1878 -88 1500 -88
Q 850 -88 516 413
Q 247 816 247 1413
Q 247 2144 642 2576
Q 1038 3009 1569 3009
Q 2013 3009 2339 2645
Q 2666 2281 2691 1566
z
M 1922 1775
Q 1922 2278 1867 2465
Q 1813 2653 1697 2750
Q 1631 2806 1522 2806
Q 1359 2806 1256 2647
Q 1072 2369 1072 1884
L 1072 1775
L 1922 1775
z
" transform="scale(0.015625)"/>
      <path id="TimesNewRomanPS-BoldMT-6e" d="M 1409 2922
L 1409 2544
Q 1634 2788 1840 2898
Q 2047 3009 2284 3009
Q 2569 3009 2756 2851
Q 2944 2694 3006 2459
Q 3056 2281 3056 1775
L 3056 638
Q 3056 300 3117 217
Q 3178 134 3372 113
L 3372 0
L 1894 0
L 1894 113
Q 2059 134 2131 250
Q 2181 328 2181 638
L 2181 1938
Q 2181 2297 2153 2390
Q 2125 2484 2058 2536
Q 1991 2588 1909 2588
Q 1641 2588 1409 2203
L 1409 638
Q 1409 309 1470 221
Q 1531 134 1697 113
L 1697 0
L 219 0
L 219 113
Q 403 131 481 231
Q 534 300 534 638
L 534 2288
Q 534 2619 473 2700
Q 413 2781 219 2806
L 219 2922
L 1409 2922
z
" transform="scale(0.015625)"/>
      <path id="TimesNewRomanPS-BoldMT-63" d="M 2600 753
L 2697 678
Q 2491 291 2183 101
Q 1875 -88 1528 -88
Q 944 -88 594 353
Q 244 794 244 1413
Q 244 2009 563 2463
Q 947 3009 1622 3009
Q 2075 3009 2342 2781
Q 2609 2553 2609 2272
Q 2609 2094 2501 1987
Q 2394 1881 2219 1881
Q 2034 1881 1914 2003
Q 1794 2125 1766 2438
Q 1747 2634 1675 2713
Q 1603 2791 1506 2791
Q 1356 2791 1250 2631
Q 1088 2391 1088 1894
Q 1088 1481 1219 1104
Q 1350 728 1578 544
Q 1750 409 1984 409
Q 2138 409 2275 481
Q 2413 553 2600 753
z
" transform="scale(0.015625)"/>
      <path id="TimesNewRomanPS-BoldMT-68" d="M 1409 4238
L 1409 2547
Q 1650 2800 1850 2904
Q 2050 3009 2266 3009
Q 2541 3009 2736 2853
Q 2931 2697 2995 2486
Q 3059 2275 3059 1775
L 3059 634
Q 3059 300 3121 217
Q 3184 134 3375 113
L 3375 0
L 1894 0
L 1894 113
Q 2050 134 2128 238
Q 2184 319 2184 634
L 2184 1938
Q 2184 2300 2156 2392
Q 2128 2484 2061 2536
Q 1994 2588 1909 2588
Q 1784 2588 1665 2502
Q 1547 2416 1409 2200
L 1409 634
Q 1409 322 1456 244
Q 1516 138 1700 113
L 1700 0
L 219 0
L 219 113
Q 403 131 481 231
Q 534 300 534 634
L 534 3603
Q 534 3934 473 4015
Q 413 4097 219 4122
L 219 4238
L 1409 4238
z
" transform="scale(0.015625)"/>
      <path id="TimesNewRomanPS-BoldMT-6d" d="M 1428 2922
L 1428 2538
Q 1669 2800 1873 2904
Q 2078 3009 2322 3009
Q 2603 3009 2793 2878
Q 2984 2747 3088 2478
Q 3338 2759 3567 2884
Q 3797 3009 4047 3009
Q 4350 3009 4529 2870
Q 4709 2731 4779 2517
Q 4850 2303 4850 1834
L 4850 638
Q 4850 300 4911 219
Q 4972 138 5166 113
L 5166 0
L 3656 0
L 3656 113
Q 3834 128 3919 250
Q 3975 334 3975 638
L 3975 1894
Q 3975 2284 3944 2390
Q 3913 2497 3845 2548
Q 3778 2600 3688 2600
Q 3553 2600 3415 2501
Q 3278 2403 3138 2206
L 3138 638
Q 3138 322 3191 241
Q 3263 125 3466 113
L 3466 0
L 1953 0
L 1953 113
Q 2075 119 2145 173
Q 2216 228 2239 304
Q 2263 381 2263 638
L 2263 1894
Q 2263 2291 2231 2391
Q 2200 2491 2126 2547
Q 2053 2603 1969 2603
Q 1844 2603 1741 2538
Q 1594 2441 1428 2206
L 1428 638
Q 1428 328 1489 229
Q 1550 131 1744 113
L 1744 0
L 238 0
L 238 113
Q 422 131 500 231
Q 553 300 553 638
L 553 2288
Q 553 2619 492 2700
Q 431 2781 238 2806
L 238 2922
L 1428 2922
z
" transform="scale(0.015625)"/>
      <path id="TimesNewRomanPS-BoldMT-61" d="M 1828 431
Q 1294 -41 869 -41
Q 619 -41 453 123
Q 288 288 288 534
Q 288 869 575 1136
Q 863 1403 1828 1847
L 1828 2141
Q 1828 2472 1792 2558
Q 1756 2644 1656 2708
Q 1556 2772 1431 2772
Q 1228 2772 1097 2681
Q 1016 2625 1016 2550
Q 1016 2484 1103 2388
Q 1222 2253 1222 2128
Q 1222 1975 1108 1867
Q 994 1759 809 1759
Q 613 1759 480 1878
Q 347 1997 347 2156
Q 347 2381 525 2586
Q 703 2791 1022 2900
Q 1341 3009 1684 3009
Q 2100 3009 2342 2832
Q 2584 2656 2656 2450
Q 2700 2319 2700 1847
L 2700 713
Q 2700 513 2715 461
Q 2731 409 2762 384
Q 2794 359 2834 359
Q 2916 359 3000 475
L 3094 400
Q 2938 169 2770 64
Q 2603 -41 2391 -41
Q 2141 -41 2000 76
Q 1859 194 1828 431
z
M 1828 659
L 1828 1638
Q 1450 1416 1266 1163
Q 1144 994 1144 822
Q 1144 678 1247 569
Q 1325 484 1466 484
Q 1622 484 1828 659
z
" transform="scale(0.015625)"/>
      <path id="TimesNewRomanPS-BoldMT-72" d="M 1428 2922
L 1428 2259
Q 1719 2713 1937 2861
Q 2156 3009 2359 3009
Q 2534 3009 2639 2901
Q 2744 2794 2744 2597
Q 2744 2388 2642 2272
Q 2541 2156 2397 2156
Q 2231 2156 2109 2262
Q 1988 2369 1966 2381
Q 1934 2400 1894 2400
Q 1803 2400 1722 2331
Q 1594 2225 1528 2028
Q 1428 1725 1428 1359
L 1428 688
L 1431 513
Q 1431 334 1453 284
Q 1491 200 1564 161
Q 1638 122 1813 113
L 1813 0
L 234 0
L 234 113
Q 425 128 492 217
Q 559 306 559 688
L 559 2303
Q 559 2553 534 2622
Q 503 2709 443 2750
Q 384 2791 234 2806
L 234 2922
L 1428 2922
z
" transform="scale(0.015625)"/>
      <path id="TimesNewRomanPS-BoldMT-6b" d="M 1403 4238
L 1403 1450
L 2081 2116
Q 2291 2319 2342 2409
Q 2394 2500 2394 2584
Q 2394 2669 2325 2725
Q 2256 2781 2056 2806
L 2056 2922
L 3366 2922
L 3366 2806
Q 3178 2797 3037 2717
Q 2897 2638 2488 2238
L 2169 1925
L 2856 919
Q 3272 306 3350 231
Q 3456 125 3619 113
L 3619 0
L 2109 0
L 2109 113
Q 2209 113 2254 150
Q 2300 188 2300 231
Q 2300 303 2169 497
L 1591 1344
L 1403 1159
L 1403 634
Q 1403 300 1465 217
Q 1528 134 1722 113
L 1722 0
L 213 0
L 213 113
Q 397 131 475 231
Q 528 300 528 634
L 528 3603
Q 528 3934 467 4015
Q 406 4097 213 4122
L 213 4238
L 1403 4238
z
" transform="scale(0.015625)"/>
      <path id="TimesNewRomanPS-BoldMT-20" transform="scale(0.015625)"/>
      <path id="TimesNewRomanPS-BoldMT-69" d="M 919 4338
Q 1122 4338 1262 4195
Q 1403 4053 1403 3853
Q 1403 3653 1261 3512
Q 1119 3372 919 3372
Q 719 3372 578 3512
Q 438 3653 438 3853
Q 438 4053 578 4195
Q 719 4338 919 4338
z
M 1356 2922
L 1356 606
Q 1356 297 1428 211
Q 1500 125 1709 113
L 1709 0
L 131 0
L 131 113
Q 325 119 419 225
Q 481 297 481 606
L 481 2313
Q 481 2622 409 2708
Q 338 2794 131 2806
L 131 2922
L 1356 2922
z
" transform="scale(0.015625)"/>
      <path id="TimesNewRomanPS-BoldMT-73" d="M 2063 3003
L 2109 2006
L 2003 2006
Q 1813 2450 1608 2612
Q 1403 2775 1200 2775
Q 1072 2775 981 2689
Q 891 2603 891 2491
Q 891 2406 953 2328
Q 1053 2200 1512 1889
Q 1972 1578 2117 1361
Q 2263 1144 2263 875
Q 2263 631 2141 397
Q 2019 163 1797 37
Q 1575 -88 1306 -88
Q 1097 -88 747 44
Q 653 78 619 78
Q 516 78 447 -78
L 344 -78
L 294 972
L 400 972
Q 541 559 786 353
Q 1031 147 1250 147
Q 1400 147 1495 239
Q 1591 331 1591 463
Q 1591 613 1497 722
Q 1403 831 1078 1053
Q 600 1384 459 1559
Q 253 1816 253 2125
Q 253 2463 486 2736
Q 719 3009 1159 3009
Q 1397 3009 1619 2894
Q 1703 2847 1756 2847
Q 1813 2847 1847 2870
Q 1881 2894 1956 3003
L 2063 3003
z
" transform="scale(0.015625)"/>
     </defs>
     <use xlink:href="#TimesNewRomanPS-BoldMT-42"/>
     <use xlink:href="#TimesNewRomanPS-BoldMT-65" transform="translate(66.699219 0)"/>
     <use xlink:href="#TimesNewRomanPS-BoldMT-6e" transform="translate(111.083984 0)"/>
     <use xlink:href="#TimesNewRomanPS-BoldMT-63" transform="translate(166.699219 0)"/>
     <use xlink:href="#TimesNewRomanPS-BoldMT-68" transform="translate(211.083984 0)"/>
     <use xlink:href="#TimesNewRomanPS-BoldMT-6d" transform="translate(266.699219 0)"/>
     <use xlink:href="#TimesNewRomanPS-BoldMT-61" transform="translate(350 0)"/>
     <use xlink:href="#TimesNewRomanPS-BoldMT-72" transform="translate(400 0)"/>
     <use xlink:href="#TimesNewRomanPS-BoldMT-6b" transform="translate(444.384766 0)"/>
     <use xlink:href="#TimesNewRomanPS-BoldMT-20" transform="translate(500 0)"/>
     <use xlink:href="#TimesNewRomanPS-BoldMT-6d" transform="translate(525 0)"/>
     <use xlink:href="#TimesNewRomanPS-BoldMT-65" transform="translate(608.300781 0)"/>
     <use xlink:href="#TimesNewRomanPS-BoldMT-63" transform="translate(652.685547 0)"/>
     <use xlink:href="#TimesNewRomanPS-BoldMT-68" transform="translate(697.070312 0)"/>
     <use xlink:href="#TimesNewRomanPS-BoldMT-61" transform="translate(752.685547 0)"/>
     <use xlink:href="#TimesNewRomanPS-BoldMT-6e" transform="translate(802.685547 0)"/>
     <use xlink:href="#TimesNewRomanPS-BoldMT-69" transform="translate(858.300781 0)"/>
     <use xlink:href="#TimesNewRomanPS-BoldMT-73" transform="translate(886.083984 0)"/>
     <use xlink:href="#TimesNewRomanPS-BoldMT-6d" transform="translate(925 0)"/>
    </g>
   </g>
   <g id="text_2">
    <!-- The same episode is evaluated through local action checks and global resource-state checks. -->
    <g style="fill: #667085" transform="translate(9.99 39.08845) scale(0.076 -0.076)">
     <defs>
      <path id="TimesNewRomanPSMT-54" d="M 3703 4238
L 3750 3244
L 3631 3244
Q 3597 3506 3538 3619
Q 3441 3800 3280 3886
Q 3119 3972 2856 3972
L 2259 3972
L 2259 734
Q 2259 344 2344 247
Q 2463 116 2709 116
L 2856 116
L 2856 0
L 1059 0
L 1059 116
L 1209 116
Q 1478 116 1591 278
Q 1659 378 1659 734
L 1659 3972
L 1150 3972
Q 853 3972 728 3928
Q 566 3869 450 3700
Q 334 3531 313 3244
L 194 3244
L 244 4238
L 3703 4238
z
" transform="scale(0.015625)"/>
      <path id="TimesNewRomanPSMT-68" d="M 1041 4444
L 1041 2350
Q 1388 2731 1591 2839
Q 1794 2947 1997 2947
Q 2241 2947 2416 2812
Q 2591 2678 2675 2391
Q 2734 2191 2734 1659
L 2734 647
Q 2734 375 2778 275
Q 2809 200 2884 156
Q 2959 113 3159 113
L 3159 0
L 1753 0
L 1753 113
L 1819 113
Q 2019 113 2097 173
Q 2175 234 2206 353
Q 2216 403 2216 647
L 2216 1659
Q 2216 2128 2167 2275
Q 2119 2422 2012 2495
Q 1906 2569 1756 2569
Q 1603 2569 1437 2487
Q 1272 2406 1041 2159
L 1041 647
Q 1041 353 1073 281
Q 1106 209 1195 161
Q 1284 113 1503 113
L 1503 0
L 84 0
L 84 113
Q 275 113 384 172
Q 447 203 484 290
Q 522 378 522 647
L 522 3238
Q 522 3728 498 3840
Q 475 3953 426 3993
Q 378 4034 297 4034
Q 231 4034 84 3984
L 41 4094
L 897 4444
L 1041 4444
z
" transform="scale(0.015625)"/>
      <path id="TimesNewRomanPSMT-65" d="M 681 1784
Q 678 1147 991 784
Q 1303 422 1725 422
Q 2006 422 2214 576
Q 2422 731 2563 1106
L 2659 1044
Q 2594 616 2278 264
Q 1963 -88 1488 -88
Q 972 -88 605 314
Q 238 716 238 1394
Q 238 2128 614 2539
Q 991 2950 1559 2950
Q 2041 2950 2350 2633
Q 2659 2316 2659 1784
L 681 1784
z
M 681 1966
L 2006 1966
Q 1991 2241 1941 2353
Q 1863 2528 1708 2628
Q 1553 2728 1384 2728
Q 1125 2728 920 2526
Q 716 2325 681 1966
z
" transform="scale(0.015625)"/>
      <path id="TimesNewRomanPSMT-20" transform="scale(0.015625)"/>
      <path id="TimesNewRomanPSMT-73" d="M 2050 2947
L 2050 1972
L 1947 1972
Q 1828 2431 1642 2597
Q 1456 2763 1169 2763
Q 950 2763 815 2647
Q 681 2531 681 2391
Q 681 2216 781 2091
Q 878 1963 1175 1819
L 1631 1597
Q 2266 1288 2266 781
Q 2266 391 1970 151
Q 1675 -88 1309 -88
Q 1047 -88 709 6
Q 606 38 541 38
Q 469 38 428 -44
L 325 -44
L 325 978
L 428 978
Q 516 541 762 319
Q 1009 97 1316 97
Q 1531 97 1667 223
Q 1803 350 1803 528
Q 1803 744 1651 891
Q 1500 1038 1047 1263
Q 594 1488 453 1669
Q 313 1847 313 2119
Q 313 2472 555 2709
Q 797 2947 1181 2947
Q 1350 2947 1591 2875
Q 1750 2828 1803 2828
Q 1853 2828 1881 2850
Q 1909 2872 1947 2947
L 2050 2947
z
" transform="scale(0.015625)"/>
      <path id="TimesNewRomanPSMT-61" d="M 1822 413
Q 1381 72 1269 19
Q 1100 -59 909 -59
Q 613 -59 420 144
Q 228 347 228 678
Q 228 888 322 1041
Q 450 1253 767 1440
Q 1084 1628 1822 1897
L 1822 2009
Q 1822 2438 1686 2597
Q 1550 2756 1291 2756
Q 1094 2756 978 2650
Q 859 2544 859 2406
L 866 2225
Q 866 2081 792 2003
Q 719 1925 600 1925
Q 484 1925 411 2006
Q 338 2088 338 2228
Q 338 2497 613 2722
Q 888 2947 1384 2947
Q 1766 2947 2009 2819
Q 2194 2722 2281 2516
Q 2338 2381 2338 1966
L 2338 994
Q 2338 584 2353 492
Q 2369 400 2405 369
Q 2441 338 2488 338
Q 2538 338 2575 359
Q 2641 400 2828 588
L 2828 413
Q 2478 -56 2159 -56
Q 2006 -56 1915 50
Q 1825 156 1822 413
z
M 1822 616
L 1822 1706
Q 1350 1519 1213 1441
Q 966 1303 859 1153
Q 753 1003 753 825
Q 753 600 887 451
Q 1022 303 1197 303
Q 1434 303 1822 616
z
" transform="scale(0.015625)"/>
      <path id="TimesNewRomanPSMT-6d" d="M 1050 2338
Q 1363 2650 1419 2697
Q 1559 2816 1721 2881
Q 1884 2947 2044 2947
Q 2313 2947 2506 2790
Q 2700 2634 2766 2338
Q 3088 2713 3309 2830
Q 3531 2947 3766 2947
Q 3994 2947 4170 2830
Q 4347 2713 4450 2447
Q 4519 2266 4519 1878
L 4519 647
Q 4519 378 4559 278
Q 4591 209 4675 161
Q 4759 113 4950 113
L 4950 0
L 3538 0
L 3538 113
L 3597 113
Q 3781 113 3884 184
Q 3956 234 3988 344
Q 4000 397 4000 647
L 4000 1878
Q 4000 2228 3916 2372
Q 3794 2572 3525 2572
Q 3359 2572 3192 2489
Q 3025 2406 2788 2181
L 2781 2147
L 2788 2013
L 2788 647
Q 2788 353 2820 281
Q 2853 209 2943 161
Q 3034 113 3253 113
L 3253 0
L 1806 0
L 1806 113
Q 2044 113 2133 169
Q 2222 225 2256 338
Q 2272 391 2272 647
L 2272 1878
Q 2272 2228 2169 2381
Q 2031 2581 1784 2581
Q 1616 2581 1450 2491
Q 1191 2353 1050 2181
L 1050 647
Q 1050 366 1089 281
Q 1128 197 1204 155
Q 1281 113 1516 113
L 1516 0
L 100 0
L 100 113
Q 297 113 375 155
Q 453 197 493 289
Q 534 381 534 647
L 534 1741
Q 534 2213 506 2350
Q 484 2453 437 2492
Q 391 2531 309 2531
Q 222 2531 100 2484
L 53 2597
L 916 2947
L 1050 2947
L 1050 2338
z
" transform="scale(0.015625)"/>
      <path id="TimesNewRomanPSMT-70" d="M -6 2578
L 875 2934
L 994 2934
L 994 2266
Q 1216 2644 1439 2795
Q 1663 2947 1909 2947
Q 2341 2947 2628 2609
Q 2981 2197 2981 1534
Q 2981 794 2556 309
Q 2206 -88 1675 -88
Q 1444 -88 1275 -22
Q 1150 25 994 166
L 994 -706
Q 994 -1000 1030 -1079
Q 1066 -1159 1155 -1206
Q 1244 -1253 1478 -1253
L 1478 -1369
L -22 -1369
L -22 -1253
L 56 -1253
Q 228 -1256 350 -1188
Q 409 -1153 442 -1076
Q 475 -1000 475 -688
L 475 2019
Q 475 2297 450 2372
Q 425 2447 370 2484
Q 316 2522 222 2522
Q 147 2522 31 2478
L -6 2578
z
M 994 2081
L 994 1013
Q 994 666 1022 556
Q 1066 375 1236 237
Q 1406 100 1666 100
Q 1978 100 2172 344
Q 2425 663 2425 1241
Q 2425 1897 2138 2250
Q 1938 2494 1663 2494
Q 1513 2494 1366 2419
Q 1253 2363 994 2081
z
" transform="scale(0.015625)"/>
      <path id="TimesNewRomanPSMT-69" d="M 928 4444
Q 1059 4444 1151 4351
Q 1244 4259 1244 4128
Q 1244 3997 1151 3903
Q 1059 3809 928 3809
Q 797 3809 703 3903
Q 609 3997 609 4128
Q 609 4259 701 4351
Q 794 4444 928 4444
z
M 1188 2947
L 1188 647
Q 1188 378 1227 289
Q 1266 200 1342 156
Q 1419 113 1622 113
L 1622 0
L 231 0
L 231 113
Q 441 113 512 153
Q 584 194 626 287
Q 669 381 669 647
L 669 1750
Q 669 2216 641 2353
Q 619 2453 572 2492
Q 525 2531 444 2531
Q 356 2531 231 2484
L 188 2597
L 1050 2947
L 1188 2947
z
" transform="scale(0.015625)"/>
      <path id="TimesNewRomanPSMT-6f" d="M 1600 2947
Q 2250 2947 2644 2453
Q 2978 2031 2978 1484
Q 2978 1100 2793 706
Q 2609 313 2286 112
Q 1963 -88 1566 -88
Q 919 -88 538 428
Q 216 863 216 1403
Q 216 1797 411 2186
Q 606 2575 925 2761
Q 1244 2947 1600 2947
z
M 1503 2744
Q 1338 2744 1170 2645
Q 1003 2547 900 2300
Q 797 2053 797 1666
Q 797 1041 1045 587
Q 1294 134 1700 134
Q 2003 134 2200 384
Q 2397 634 2397 1244
Q 2397 2006 2069 2444
Q 1847 2744 1503 2744
z
" transform="scale(0.015625)"/>
      <path id="TimesNewRomanPSMT-64" d="M 2222 322
Q 2013 103 1813 7
Q 1613 -88 1381 -88
Q 913 -88 563 304
Q 213 697 213 1313
Q 213 1928 600 2439
Q 988 2950 1597 2950
Q 1975 2950 2222 2709
L 2222 3238
Q 2222 3728 2198 3840
Q 2175 3953 2125 3993
Q 2075 4034 2000 4034
Q 1919 4034 1784 3984
L 1744 4094
L 2597 4444
L 2738 4444
L 2738 1134
Q 2738 631 2761 520
Q 2784 409 2836 365
Q 2888 322 2956 322
Q 3041 322 3181 375
L 3216 266
L 2366 -88
L 2222 -88
L 2222 322
z
M 2222 541
L 2222 2016
Q 2203 2228 2109 2403
Q 2016 2578 1861 2667
Q 1706 2756 1559 2756
Q 1284 2756 1069 2509
Q 784 2184 784 1559
Q 784 928 1059 592
Q 1334 256 1672 256
Q 1956 256 2222 541
z
" transform="scale(0.015625)"/>
      <path id="TimesNewRomanPSMT-76" d="M 53 2863
L 1400 2863
L 1400 2747
L 1313 2747
Q 1191 2747 1127 2687
Q 1063 2628 1063 2528
Q 1063 2419 1128 2269
L 1794 688
L 2463 2328
Q 2534 2503 2534 2594
Q 2534 2638 2509 2666
Q 2475 2713 2422 2730
Q 2369 2747 2206 2747
L 2206 2863
L 3141 2863
L 3141 2747
Q 2978 2734 2916 2681
Q 2806 2588 2719 2369
L 1703 -88
L 1575 -88
L 553 2328
Q 484 2497 421 2570
Q 359 2644 263 2694
Q 209 2722 53 2747
L 53 2863
z
" transform="scale(0.015625)"/>
      <path id="TimesNewRomanPSMT-6c" d="M 1184 4444
L 1184 647
Q 1184 378 1223 290
Q 1263 203 1344 158
Q 1425 113 1647 113
L 1647 0
L 244 0
L 244 113
Q 441 113 512 153
Q 584 194 625 287
Q 666 381 666 647
L 666 3247
Q 666 3731 644 3842
Q 622 3953 573 3993
Q 525 4034 450 4034
Q 369 4034 244 3984
L 191 4094
L 1044 4444
L 1184 4444
z
" transform="scale(0.015625)"/>
      <path id="TimesNewRomanPSMT-75" d="M 2709 2863
L 2709 1128
Q 2709 631 2732 520
Q 2756 409 2807 365
Q 2859 322 2928 322
Q 3025 322 3147 375
L 3191 266
L 2334 -88
L 2194 -88
L 2194 519
Q 1825 119 1631 15
Q 1438 -88 1222 -88
Q 981 -88 804 51
Q 628 191 559 409
Q 491 628 491 1028
L 491 2306
Q 491 2509 447 2587
Q 403 2666 317 2708
Q 231 2750 6 2747
L 6 2863
L 1009 2863
L 1009 947
Q 1009 547 1148 422
Q 1288 297 1484 297
Q 1619 297 1789 381
Q 1959 466 2194 703
L 2194 2325
Q 2194 2569 2105 2655
Q 2016 2741 1734 2747
L 1734 2863
L 2709 2863
z
" transform="scale(0.015625)"/>
      <path id="TimesNewRomanPSMT-74" d="M 1031 3803
L 1031 2863
L 1700 2863
L 1700 2644
L 1031 2644
L 1031 788
Q 1031 509 1111 412
Q 1191 316 1316 316
Q 1419 316 1516 380
Q 1613 444 1666 569
L 1788 569
Q 1678 263 1478 108
Q 1278 -47 1066 -47
Q 922 -47 784 33
Q 647 113 581 261
Q 516 409 516 719
L 516 2644
L 63 2644
L 63 2747
Q 234 2816 414 2980
Q 594 3144 734 3369
Q 806 3488 934 3803
L 1031 3803
z
" transform="scale(0.015625)"/>
      <path id="TimesNewRomanPSMT-72" d="M 1038 2947
L 1038 2303
Q 1397 2947 1775 2947
Q 1947 2947 2059 2842
Q 2172 2738 2172 2600
Q 2172 2478 2090 2393
Q 2009 2309 1897 2309
Q 1788 2309 1652 2417
Q 1516 2525 1450 2525
Q 1394 2525 1328 2463
Q 1188 2334 1038 2041
L 1038 669
Q 1038 431 1097 309
Q 1138 225 1241 169
Q 1344 113 1538 113
L 1538 0
L 72 0
L 72 113
Q 291 113 397 181
Q 475 231 506 341
Q 522 394 522 644
L 522 1753
Q 522 2253 501 2348
Q 481 2444 426 2487
Q 372 2531 291 2531
Q 194 2531 72 2484
L 41 2597
L 906 2947
L 1038 2947
z
" transform="scale(0.015625)"/>
      <path id="TimesNewRomanPSMT-67" d="M 966 1044
Q 703 1172 562 1401
Q 422 1631 422 1909
Q 422 2334 742 2640
Q 1063 2947 1563 2947
Q 1972 2947 2272 2747
L 2878 2747
Q 3013 2747 3034 2739
Q 3056 2731 3066 2713
Q 3084 2684 3084 2613
Q 3084 2531 3069 2500
Q 3059 2484 3036 2475
Q 3013 2466 2878 2466
L 2506 2466
Q 2681 2241 2681 1891
Q 2681 1491 2375 1206
Q 2069 922 1553 922
Q 1341 922 1119 984
Q 981 866 932 777
Q 884 688 884 625
Q 884 572 936 522
Q 988 472 1138 450
Q 1225 438 1575 428
Q 2219 413 2409 384
Q 2700 344 2873 169
Q 3047 -6 3047 -263
Q 3047 -616 2716 -925
Q 2228 -1381 1444 -1381
Q 841 -1381 425 -1109
Q 191 -953 191 -784
Q 191 -709 225 -634
Q 278 -519 444 -313
Q 466 -284 763 25
Q 600 122 533 198
Q 466 275 466 372
Q 466 481 555 628
Q 644 775 966 1044
z
M 1509 2797
Q 1278 2797 1122 2612
Q 966 2428 966 2047
Q 966 1553 1178 1281
Q 1341 1075 1591 1075
Q 1828 1075 1981 1253
Q 2134 1431 2134 1813
Q 2134 2309 1919 2591
Q 1759 2797 1509 2797
z
M 934 0
Q 788 -159 713 -296
Q 638 -434 638 -550
Q 638 -700 819 -813
Q 1131 -1006 1722 -1006
Q 2284 -1006 2551 -807
Q 2819 -609 2819 -384
Q 2819 -222 2659 -153
Q 2497 -84 2016 -72
Q 1313 -53 934 0
z
" transform="scale(0.015625)"/>
      <path id="TimesNewRomanPSMT-63" d="M 2631 1088
Q 2516 522 2178 217
Q 1841 -88 1431 -88
Q 944 -88 581 321
Q 219 731 219 1428
Q 219 2103 620 2525
Q 1022 2947 1584 2947
Q 2006 2947 2278 2723
Q 2550 2500 2550 2259
Q 2550 2141 2473 2067
Q 2397 1994 2259 1994
Q 2075 1994 1981 2113
Q 1928 2178 1911 2362
Q 1894 2547 1784 2644
Q 1675 2738 1481 2738
Q 1169 2738 978 2506
Q 725 2200 725 1697
Q 725 1184 976 792
Q 1228 400 1656 400
Q 1963 400 2206 609
Q 2378 753 2541 1131
L 2631 1088
z
" transform="scale(0.015625)"/>
      <path id="TimesNewRomanPSMT-6e" d="M 1034 2341
Q 1538 2947 1994 2947
Q 2228 2947 2397 2830
Q 2566 2713 2666 2444
Q 2734 2256 2734 1869
L 2734 647
Q 2734 375 2778 278
Q 2813 200 2889 156
Q 2966 113 3172 113
L 3172 0
L 1756 0
L 1756 113
L 1816 113
Q 2016 113 2095 173
Q 2175 234 2206 353
Q 2219 400 2219 647
L 2219 1819
Q 2219 2209 2117 2386
Q 2016 2563 1775 2563
Q 1403 2563 1034 2156
L 1034 647
Q 1034 356 1069 288
Q 1113 197 1189 155
Q 1266 113 1500 113
L 1500 0
L 84 0
L 84 113
L 147 113
Q 366 113 442 223
Q 519 334 519 647
L 519 1709
Q 519 2225 495 2337
Q 472 2450 423 2490
Q 375 2531 294 2531
Q 206 2531 84 2484
L 38 2597
L 900 2947
L 1034 2947
L 1034 2341
z
" transform="scale(0.015625)"/>
      <path id="TimesNewRomanPSMT-6b" d="M 1047 4444
L 1047 1594
L 1775 2259
Q 2006 2472 2044 2528
Q 2069 2566 2069 2603
Q 2069 2666 2017 2711
Q 1966 2756 1847 2763
L 1847 2863
L 3091 2863
L 3091 2763
Q 2834 2756 2664 2684
Q 2494 2613 2291 2428
L 1556 1750
L 2291 822
Q 2597 438 2703 334
Q 2853 188 2966 144
Q 3044 113 3238 113
L 3238 0
L 1847 0
L 1847 113
Q 1966 116 2008 148
Q 2050 181 2050 241
Q 2050 313 1925 472
L 1047 1594
L 1047 644
Q 1047 366 1086 278
Q 1125 191 1197 153
Q 1269 116 1509 113
L 1509 0
L 53 0
L 53 113
Q 272 113 381 166
Q 447 200 481 272
Q 528 375 528 628
L 528 3234
Q 528 3731 506 3842
Q 484 3953 434 3995
Q 384 4038 303 4038
Q 238 4038 106 3984
L 53 4094
L 903 4444
L 1047 4444
z
" transform="scale(0.015625)"/>
      <path id="TimesNewRomanPSMT-62" d="M 984 2369
Q 1400 2947 1881 2947
Q 2322 2947 2650 2570
Q 2978 2194 2978 1541
Q 2978 778 2472 313
Q 2038 -88 1503 -88
Q 1253 -88 995 3
Q 738 94 469 275
L 469 3241
Q 469 3728 445 3840
Q 422 3953 372 3993
Q 322 4034 247 4034
Q 159 4034 28 3984
L -16 4094
L 844 4444
L 984 4444
L 984 2369
z
M 984 2169
L 984 456
Q 1144 300 1314 220
Q 1484 141 1663 141
Q 1947 141 2192 453
Q 2438 766 2438 1363
Q 2438 1913 2192 2208
Q 1947 2503 1634 2503
Q 1469 2503 1303 2419
Q 1178 2356 984 2169
z
" transform="scale(0.015625)"/>
      <path id="TimesNewRomanPSMT-2d" d="M 259 1672
L 1875 1672
L 1875 1200
L 259 1200
L 259 1672
z
" transform="scale(0.015625)"/>
      <path id="TimesNewRomanPSMT-2e" d="M 800 606
Q 947 606 1047 504
Q 1147 403 1147 259
Q 1147 116 1045 14
Q 944 -88 800 -88
Q 656 -88 554 14
Q 453 116 453 259
Q 453 406 554 506
Q 656 606 800 606
z
" transform="scale(0.015625)"/>
     </defs>
     <use xlink:href="#TimesNewRomanPSMT-54"/>
     <use xlink:href="#TimesNewRomanPSMT-68" transform="translate(61.083984 0)"/>
     <use xlink:href="#TimesNewRomanPSMT-65" transform="translate(111.083984 0)"/>
     <use xlink:href="#TimesNewRomanPSMT-20" transform="translate(155.46875 0)"/>
     <use xlink:href="#TimesNewRomanPSMT-73" transform="translate(180.46875 0)"/>
     <use xlink:href="#TimesNewRomanPSMT-61" transform="translate(219.384766 0)"/>
     <use xlink:href="#TimesNewRomanPSMT-6d" transform="translate(263.769531 0)"/>
     <use xlink:href="#TimesNewRomanPSMT-65" transform="translate(341.552734 0)"/>
     <use xlink:href="#TimesNewRomanPSMT-20" transform="translate(385.9375 0)"/>
     <use xlink:href="#TimesNewRomanPSMT-65" transform="translate(410.9375 0)"/>
     <use xlink:href="#TimesNewRomanPSMT-70" transform="translate(455.322266 0)"/>
     <use xlink:href="#TimesNewRomanPSMT-69" transform="translate(505.322266 0)"/>
     <use xlink:href="#TimesNewRomanPSMT-73" transform="translate(533.105469 0)"/>
     <use xlink:href="#TimesNewRomanPSMT-6f" transform="translate(572.021484 0)"/>
     <use xlink:href="#TimesNewRomanPSMT-64" transform="translate(622.021484 0)"/>
     <use xlink:href="#TimesNewRomanPSMT-65" transform="translate(672.021484 0)"/>
     <use xlink:href="#TimesNewRomanPSMT-20" transform="translate(716.40625 0)"/>
     <use xlink:href="#TimesNewRomanPSMT-69" transform="translate(741.40625 0)"/>
     <use xlink:href="#TimesNewRomanPSMT-73" transform="translate(769.189453 0)"/>
     <use xlink:href="#TimesNewRomanPSMT-20" transform="translate(808.105469 0)"/>
     <use xlink:href="#TimesNewRomanPSMT-65" transform="translate(833.105469 0)"/>
     <use xlink:href="#TimesNewRomanPSMT-76" transform="translate(877.490234 0)"/>
     <use xlink:href="#TimesNewRomanPSMT-61" transform="translate(927.490234 0)"/>
     <use xlink:href="#TimesNewRomanPSMT-6c" transform="translate(971.875 0)"/>
     <use xlink:href="#TimesNewRomanPSMT-75" transform="translate(999.658203 0)"/>
     <use xlink:href="#TimesNewRomanPSMT-61" transform="translate(1049.658203 0)"/>
     <use xlink:href="#TimesNewRomanPSMT-74" transform="translate(1094.042969 0)"/>
     <use xlink:href="#TimesNewRomanPSMT-65" transform="translate(1121.826172 0)"/>
     <use xlink:href="#TimesNewRomanPSMT-64" transform="translate(1166.210938 0)"/>
     <use xlink:href="#TimesNewRomanPSMT-20" transform="translate(1216.210938 0)"/>
     <use xlink:href="#TimesNewRomanPSMT-74" transform="translate(1241.210938 0)"/>
     <use xlink:href="#TimesNewRomanPSMT-68" transform="translate(1268.994141 0)"/>
     <use xlink:href="#TimesNewRomanPSMT-72" transform="translate(1318.994141 0)"/>
     <use xlink:href="#TimesNewRomanPSMT-6f" transform="translate(1352.294922 0)"/>
     <use xlink:href="#TimesNewRomanPSMT-75" transform="translate(1402.294922 0)"/>
     <use xlink:href="#TimesNewRomanPSMT-67" transform="translate(1452.294922 0)"/>
     <use xlink:href="#TimesNewRomanPSMT-68" transform="translate(1502.294922 0)"/>
     <use xlink:href="#TimesNewRomanPSMT-20" transform="translate(1552.294922 0)"/>
     <use xlink:href="#TimesNewRomanPSMT-6c" transform="translate(1577.294922 0)"/>
     <use xlink:href="#TimesNewRomanPSMT-6f" transform="translate(1605.078125 0)"/>
     <use xlink:href="#TimesNewRomanPSMT-63" transform="translate(1655.078125 0)"/>
     <use xlink:href="#TimesNewRomanPSMT-61" transform="translate(1699.462891 0)"/>
     <use xlink:href="#TimesNewRomanPSMT-6c" transform="translate(1743.847656 0)"/>
     <use xlink:href="#TimesNewRomanPSMT-20" transform="translate(1771.630859 0)"/>
     <use xlink:href="#TimesNewRomanPSMT-61" transform="translate(1796.630859 0)"/>
     <use xlink:href="#TimesNewRomanPSMT-63" transform="translate(1841.015625 0)"/>
     <use xlink:href="#TimesNewRomanPSMT-74" transform="translate(1885.400391 0)"/>
     <use xlink:href="#TimesNewRomanPSMT-69" transform="translate(1913.183594 0)"/>
     <use xlink:href="#TimesNewRomanPSMT-6f" transform="translate(1940.966797 0)"/>
     <use xlink:href="#TimesNewRomanPSMT-6e" transform="translate(1990.966797 0)"/>
     <use xlink:href="#TimesNewRomanPSMT-20" transform="translate(2040.966797 0)"/>
     <use xlink:href="#TimesNewRomanPSMT-63" transform="translate(2065.966797 0)"/>
     <use xlink:href="#TimesNewRomanPSMT-68" transform="translate(2110.351562 0)"/>
     <use xlink:href="#TimesNewRomanPSMT-65" transform="translate(2160.351562 0)"/>
     <use xlink:href="#TimesNewRomanPSMT-63" transform="translate(2204.736328 0)"/>
     <use xlink:href="#TimesNewRomanPSMT-6b" transform="translate(2249.121094 0)"/>
     <use xlink:href="#TimesNewRomanPSMT-73" transform="translate(2299.121094 0)"/>
     <use xlink:href="#TimesNewRomanPSMT-20" transform="translate(2338.037109 0)"/>
     <use xlink:href="#TimesNewRomanPSMT-61" transform="translate(2363.037109 0)"/>
     <use xlink:href="#TimesNewRomanPSMT-6e" transform="translate(2407.421875 0)"/>
     <use xlink:href="#TimesNewRomanPSMT-64" transform="translate(2457.421875 0)"/>
     <use xlink:href="#TimesNewRomanPSMT-20" transform="translate(2507.421875 0)"/>
     <use xlink:href="#TimesNewRomanPSMT-67" transform="translate(2532.421875 0)"/>
     <use xlink:href="#TimesNewRomanPSMT-6c" transform="translate(2582.421875 0)"/>
     <use xlink:href="#TimesNewRomanPSMT-6f" transform="translate(2610.205078 0)"/>
     <use xlink:href="#TimesNewRomanPSMT-62" transform="translate(2660.205078 0)"/>
     <use xlink:href="#TimesNewRomanPSMT-61" transform="translate(2710.205078 0)"/>
     <use xlink:href="#TimesNewRomanPSMT-6c" transform="translate(2754.589844 0)"/>
     <use xlink:href="#TimesNewRomanPSMT-20" transform="translate(2782.373047 0)"/>
     <use xlink:href="#TimesNewRomanPSMT-72" transform="translate(2807.373047 0)"/>
     <use xlink:href="#TimesNewRomanPSMT-65" transform="translate(2840.673828 0)"/>
     <use xlink:href="#TimesNewRomanPSMT-73" transform="translate(2885.058594 0)"/>
     <use xlink:href="#TimesNewRomanPSMT-6f" transform="translate(2923.974609 0)"/>
     <use xlink:href="#TimesNewRomanPSMT-75" transform="translate(2973.974609 0)"/>
     <use xlink:href="#TimesNewRomanPSMT-72" transform="translate(3023.974609 0)"/>
     <use xlink:href="#TimesNewRomanPSMT-63" transform="translate(3057.275391 0)"/>
     <use xlink:href="#TimesNewRomanPSMT-65" transform="translate(3101.660156 0)"/>
     <use xlink:href="#TimesNewRomanPSMT-2d" transform="translate(3146.044922 0)"/>
     <use xlink:href="#TimesNewRomanPSMT-73" transform="translate(3179.345703 0)"/>
     <use xlink:href="#TimesNewRomanPSMT-74" transform="translate(3218.261719 0)"/>
     <use xlink:href="#TimesNewRomanPSMT-61" transform="translate(3246.044922 0)"/>
     <use xlink:href="#TimesNewRomanPSMT-74" transform="translate(3290.429688 0)"/>
     <use xlink:href="#TimesNewRomanPSMT-65" transform="translate(3318.212891 0)"/>
     <use xlink:href="#TimesNewRomanPSMT-20" transform="translate(3362.597656 0)"/>
     <use xlink:href="#TimesNewRomanPSMT-63" transform="translate(3387.597656 0)"/>
     <use xlink:href="#TimesNewRomanPSMT-68" transform="translate(3431.982422 0)"/>
     <use xlink:href="#TimesNewRomanPSMT-65" transform="translate(3481.982422 0)"/>
     <use xlink:href="#TimesNewRomanPSMT-63" transform="translate(3526.367188 0)"/>
     <use xlink:href="#TimesNewRomanPSMT-6b" transform="translate(3570.751953 0)"/>
     <use xlink:href="#TimesNewRomanPSMT-73" transform="translate(3620.751953 0)"/>
     <use xlink:href="#TimesNewRomanPSMT-2e" transform="translate(3659.667969 0)"/>
    </g>
   </g>
   <g id="text_3">
    <!-- Strategy artifacts -->
    <g style="fill: #1f2933" transform="translate(33.392297 69.090283) scale(0.069 -0.069)">
     <defs>
      <path id="TimesNewRomanPSMT-53" d="M 2934 4334
L 2934 2869
L 2819 2869
Q 2763 3291 2617 3541
Q 2472 3791 2203 3937
Q 1934 4084 1647 4084
Q 1322 4084 1109 3886
Q 897 3688 897 3434
Q 897 3241 1031 3081
Q 1225 2847 1953 2456
Q 2547 2138 2764 1967
Q 2981 1797 3098 1565
Q 3216 1334 3216 1081
Q 3216 600 2842 251
Q 2469 -97 1881 -97
Q 1697 -97 1534 -69
Q 1438 -53 1133 45
Q 828 144 747 144
Q 669 144 623 97
Q 578 50 556 -97
L 441 -97
L 441 1356
L 556 1356
Q 638 900 775 673
Q 913 447 1195 297
Q 1478 147 1816 147
Q 2206 147 2432 353
Q 2659 559 2659 841
Q 2659 997 2573 1156
Q 2488 1316 2306 1453
Q 2184 1547 1640 1851
Q 1097 2156 867 2337
Q 638 2519 519 2737
Q 400 2956 400 3219
Q 400 3675 750 4004
Q 1100 4334 1641 4334
Q 1978 4334 2356 4169
Q 2531 4091 2603 4091
Q 2684 4091 2736 4139
Q 2788 4188 2819 4334
L 2934 4334
z
" transform="scale(0.015625)"/>
      <path id="TimesNewRomanPSMT-79" d="M 38 2863
L 1372 2863
L 1372 2747
L 1306 2747
Q 1166 2747 1095 2686
Q 1025 2625 1025 2534
Q 1025 2413 1128 2197
L 1825 753
L 2466 2334
Q 2519 2463 2519 2588
Q 2519 2644 2497 2672
Q 2472 2706 2419 2726
Q 2366 2747 2231 2747
L 2231 2863
L 3163 2863
L 3163 2747
Q 3047 2734 2984 2696
Q 2922 2659 2847 2556
Q 2819 2513 2741 2316
L 1575 -541
Q 1406 -956 1132 -1168
Q 859 -1381 606 -1381
Q 422 -1381 303 -1275
Q 184 -1169 184 -1031
Q 184 -900 270 -820
Q 356 -741 506 -741
Q 609 -741 788 -809
Q 913 -856 944 -856
Q 1038 -856 1148 -759
Q 1259 -663 1372 -384
L 1575 113
L 547 2272
Q 500 2369 397 2513
Q 319 2622 269 2659
Q 197 2709 38 2747
L 38 2863
z
" transform="scale(0.015625)"/>
      <path id="TimesNewRomanPSMT-66" d="M 1319 2638
L 1319 756
Q 1319 356 1406 250
Q 1522 113 1716 113
L 1975 113
L 1975 0
L 266 0
L 266 113
L 394 113
Q 519 113 622 175
Q 725 238 764 344
Q 803 450 803 756
L 803 2638
L 247 2638
L 247 2863
L 803 2863
L 803 3050
Q 803 3478 940 3775
Q 1078 4072 1361 4255
Q 1644 4438 1997 4438
Q 2325 4438 2600 4225
Q 2781 4084 2781 3909
Q 2781 3816 2700 3733
Q 2619 3650 2525 3650
Q 2453 3650 2373 3701
Q 2294 3753 2178 3923
Q 2063 4094 1966 4153
Q 1869 4213 1750 4213
Q 1606 4213 1506 4136
Q 1406 4059 1362 3898
Q 1319 3738 1319 3069
L 1319 2863
L 2056 2863
L 2056 2638
L 1319 2638
z
" transform="scale(0.015625)"/>
     </defs>
     <use xlink:href="#TimesNewRomanPSMT-53"/>
     <use xlink:href="#TimesNewRomanPSMT-74" transform="translate(55.615234 0)"/>
     <use xlink:href="#TimesNewRomanPSMT-72" transform="translate(83.398438 0)"/>
     <use xlink:href="#TimesNewRomanPSMT-61" transform="translate(116.699219 0)"/>
     <use xlink:href="#TimesNewRomanPSMT-74" transform="translate(161.083984 0)"/>
     <use xlink:href="#TimesNewRomanPSMT-65" transform="translate(188.867188 0)"/>
     <use xlink:href="#TimesNewRomanPSMT-67" transform="translate(233.251953 0)"/>
     <use xlink:href="#TimesNewRomanPSMT-79" transform="translate(283.251953 0)"/>
     <use xlink:href="#TimesNewRomanPSMT-20" transform="translate(333.251953 0)"/>
     <use xlink:href="#TimesNewRomanPSMT-61" transform="translate(358.251953 0)"/>
     <use xlink:href="#TimesNewRomanPSMT-72" transform="translate(402.636719 0)"/>
     <use xlink:href="#TimesNewRomanPSMT-74" transform="translate(435.9375 0)"/>
     <use xlink:href="#TimesNewRomanPSMT-69" transform="translate(463.720703 0)"/>
     <use xlink:href="#TimesNewRomanPSMT-66" transform="translate(491.503906 0)"/>
     <use xlink:href="#TimesNewRomanPSMT-61" transform="translate(524.804688 0)"/>
     <use xlink:href="#TimesNewRomanPSMT-63" transform="translate(569.189453 0)"/>
     <use xlink:href="#TimesNewRomanPSMT-74" transform="translate(613.574219 0)"/>
     <use xlink:href="#TimesNewRomanPSMT-73" transform="translate(641.357422 0)"/>
    </g>
    <!-- structured policies -->
    <g style="fill: #1f2933" transform="translate(31.473234 76.136951) scale(0.069 -0.069)">
     <use xlink:href="#TimesNewRomanPSMT-73"/>
     <use xlink:href="#TimesNewRomanPSMT-74" transform="translate(38.916016 0)"/>
     <use xlink:href="#TimesNewRomanPSMT-72" transform="translate(66.699219 0)"/>
     <use xlink:href="#TimesNewRomanPSMT-75" transform="translate(100 0)"/>
     <use xlink:href="#TimesNewRomanPSMT-63" transform="translate(150 0)"/>
     <use xlink:href="#TimesNewRomanPSMT-74" transform="translate(194.384766 0)"/>
     <use xlink:href="#TimesNewRomanPSMT-75" transform="translate(222.167969 0)"/>
     <use xlink:href="#TimesNewRomanPSMT-72" transform="translate(272.167969 0)"/>
     <use xlink:href="#TimesNewRomanPSMT-65" transform="translate(305.46875 0)"/>
     <use xlink:href="#TimesNewRomanPSMT-64" transform="translate(349.853516 0)"/>
     <use xlink:href="#TimesNewRomanPSMT-20" transform="translate(399.853516 0)"/>
     <use xlink:href="#TimesNewRomanPSMT-70" transform="translate(424.853516 0)"/>
     <use xlink:href="#TimesNewRomanPSMT-6f" transform="translate(474.853516 0)"/>
     <use xlink:href="#TimesNewRomanPSMT-6c" transform="translate(524.853516 0)"/>
     <use xlink:href="#TimesNewRomanPSMT-69" transform="translate(552.636719 0)"/>
     <use xlink:href="#TimesNewRomanPSMT-63" transform="translate(580.419922 0)"/>
     <use xlink:href="#TimesNewRomanPSMT-69" transform="translate(624.804688 0)"/>
     <use xlink:href="#TimesNewRomanPSMT-65" transform="translate(652.587891 0)"/>
     <use xlink:href="#TimesNewRomanPSMT-73" transform="translate(696.972656 0)"/>
    </g>
   </g>
   <g id="text_4">
    <!-- Entrant process -->
    <g style="fill: #1f2933" transform="translate(125.335875 69.096752) scale(0.069 -0.069)">
     <defs>
      <path id="TimesNewRomanPSMT-45" d="M 1338 4006
L 1338 2331
L 2269 2331
Q 2631 2331 2753 2441
Q 2916 2584 2934 2947
L 3050 2947
L 3050 1472
L 2934 1472
Q 2891 1781 2847 1869
Q 2791 1978 2662 2040
Q 2534 2103 2269 2103
L 1338 2103
L 1338 706
Q 1338 425 1363 364
Q 1388 303 1450 267
Q 1513 231 1688 231
L 2406 231
Q 2766 231 2928 281
Q 3091 331 3241 478
Q 3434 672 3638 1063
L 3763 1063
L 3397 0
L 131 0
L 131 116
L 281 116
Q 431 116 566 188
Q 666 238 702 338
Q 738 438 738 747
L 738 3500
Q 738 3903 656 3997
Q 544 4122 281 4122
L 131 4122
L 131 4238
L 3397 4238
L 3444 3309
L 3322 3309
Q 3256 3644 3176 3769
Q 3097 3894 2941 3959
Q 2816 4006 2500 4006
L 1338 4006
z
" transform="scale(0.015625)"/>
     </defs>
     <use xlink:href="#TimesNewRomanPSMT-45"/>
     <use xlink:href="#TimesNewRomanPSMT-6e" transform="translate(61.083984 0)"/>
     <use xlink:href="#TimesNewRomanPSMT-74" transform="translate(111.083984 0)"/>
     <use xlink:href="#TimesNewRomanPSMT-72" transform="translate(138.867188 0)"/>
     <use xlink:href="#TimesNewRomanPSMT-61" transform="translate(172.167969 0)"/>
     <use xlink:href="#TimesNewRomanPSMT-6e" transform="translate(216.552734 0)"/>
     <use xlink:href="#TimesNewRomanPSMT-74" transform="translate(266.552734 0)"/>
     <use xlink:href="#TimesNewRomanPSMT-20" transform="translate(294.335938 0)"/>
     <use xlink:href="#TimesNewRomanPSMT-70" transform="translate(319.335938 0)"/>
     <use xlink:href="#TimesNewRomanPSMT-72" transform="translate(369.335938 0)"/>
     <use xlink:href="#TimesNewRomanPSMT-6f" transform="translate(402.636719 0)"/>
     <use xlink:href="#TimesNewRomanPSMT-63" transform="translate(452.636719 0)"/>
     <use xlink:href="#TimesNewRomanPSMT-65" transform="translate(497.021484 0)"/>
     <use xlink:href="#TimesNewRomanPSMT-73" transform="translate(541.40625 0)"/>
     <use xlink:href="#TimesNewRomanPSMT-73" transform="translate(580.322266 0)"/>
    </g>
    <!-- mutation or search -->
    <g style="fill: #1f2933" transform="translate(121.024992 76.130482) scale(0.069 -0.069)">
     <use xlink:href="#TimesNewRomanPSMT-6d"/>
     <use xlink:href="#TimesNewRomanPSMT-75" transform="translate(77.783203 0)"/>
     <use xlink:href="#TimesNewRomanPSMT-74" transform="translate(127.783203 0)"/>
     <use xlink:href="#TimesNewRomanPSMT-61" transform="translate(155.566406 0)"/>
     <use xlink:href="#TimesNewRomanPSMT-74" transform="translate(199.951172 0)"/>
     <use xlink:href="#TimesNewRomanPSMT-69" transform="translate(227.734375 0)"/>
     <use xlink:href="#TimesNewRomanPSMT-6f" transform="translate(255.517578 0)"/>
     <use xlink:href="#TimesNewRomanPSMT-6e" transform="translate(305.517578 0)"/>
     <use xlink:href="#TimesNewRomanPSMT-20" transform="translate(355.517578 0)"/>
     <use xlink:href="#TimesNewRomanPSMT-6f" transform="translate(380.517578 0)"/>
     <use xlink:href="#TimesNewRomanPSMT-72" transform="translate(430.517578 0)"/>
     <use xlink:href="#TimesNewRomanPSMT-20" transform="translate(463.818359 0)"/>
     <use xlink:href="#TimesNewRomanPSMT-73" transform="translate(488.818359 0)"/>
     <use xlink:href="#TimesNewRomanPSMT-65" transform="translate(527.734375 0)"/>
     <use xlink:href="#TimesNewRomanPSMT-61" transform="translate(572.119141 0)"/>
     <use xlink:href="#TimesNewRomanPSMT-72" transform="translate(616.503906 0)"/>
     <use xlink:href="#TimesNewRomanPSMT-63" transform="translate(649.804688 0)"/>
     <use xlink:href="#TimesNewRomanPSMT-68" transform="translate(694.189453 0)"/>
    </g>
   </g>
   <g id="text_5">
    <!-- Harvest commons -->
    <g style="fill: #1f2933" transform="translate(215.435813 65.565073) scale(0.069 -0.069)">
     <defs>
      <path id="TimesNewRomanPSMT-48" d="M 1316 2272
L 3284 2272
L 3284 3484
Q 3284 3809 3244 3913
Q 3213 3991 3113 4047
Q 2978 4122 2828 4122
L 2678 4122
L 2678 4238
L 4491 4238
L 4491 4122
L 4341 4122
Q 4191 4122 4056 4050
Q 3956 4000 3920 3898
Q 3884 3797 3884 3484
L 3884 750
Q 3884 428 3925 325
Q 3956 247 4053 191
Q 4191 116 4341 116
L 4491 116
L 4491 0
L 2678 0
L 2678 116
L 2828 116
Q 3088 116 3206 269
Q 3284 369 3284 750
L 3284 2041
L 1316 2041
L 1316 750
Q 1316 428 1356 325
Q 1388 247 1488 191
Q 1622 116 1772 116
L 1925 116
L 1925 0
L 109 0
L 109 116
L 259 116
Q 522 116 641 269
Q 716 369 716 750
L 716 3484
Q 716 3809 675 3913
Q 644 3991 547 4047
Q 409 4122 259 4122
L 109 4122
L 109 4238
L 1925 4238
L 1925 4122
L 1772 4122
Q 1622 4122 1488 4050
Q 1391 4000 1353 3898
Q 1316 3797 1316 3484
L 1316 2272
z
" transform="scale(0.015625)"/>
     </defs>
     <use xlink:href="#TimesNewRomanPSMT-48"/>
     <use xlink:href="#TimesNewRomanPSMT-61" transform="translate(72.216797 0)"/>
     <use xlink:href="#TimesNewRomanPSMT-72" transform="translate(116.601562 0)"/>
     <use xlink:href="#TimesNewRomanPSMT-76" transform="translate(149.902344 0)"/>
     <use xlink:href="#TimesNewRomanPSMT-65" transform="translate(199.902344 0)"/>
     <use xlink:href="#TimesNewRomanPSMT-73" transform="translate(244.287109 0)"/>
     <use xlink:href="#TimesNewRomanPSMT-74" transform="translate(283.203125 0)"/>
     <use xlink:href="#TimesNewRomanPSMT-20" transform="translate(310.986328 0)"/>
     <use xlink:href="#TimesNewRomanPSMT-63" transform="translate(335.986328 0)"/>
     <use xlink:href="#TimesNewRomanPSMT-6f" transform="translate(380.371094 0)"/>
     <use xlink:href="#TimesNewRomanPSMT-6d" transform="translate(430.371094 0)"/>
     <use xlink:href="#TimesNewRomanPSMT-6d" transform="translate(508.154297 0)"/>
     <use xlink:href="#TimesNewRomanPSMT-6f" transform="translate(585.9375 0)"/>
     <use xlink:href="#TimesNewRomanPSMT-6e" transform="translate(635.9375 0)"/>
     <use xlink:href="#TimesNewRomanPSMT-73" transform="translate(685.9375 0)"/>
    </g>
    <!-- joint harvesting -->
    <g style="fill: #1f2933" transform="translate(218.884734 72.602556) scale(0.069 -0.069)">
     <defs>
      <path id="TimesNewRomanPSMT-6a" d="M 925 4447
Q 1059 4447 1153 4353
Q 1247 4259 1247 4125
Q 1247 3994 1153 3900
Q 1059 3806 925 3806
Q 794 3806 700 3900
Q 606 3994 606 4125
Q 606 4259 700 4353
Q 794 4447 925 4447
z
M 1194 2947
L 1194 66
Q 1194 -669 881 -1025
Q 569 -1381 69 -1381
Q -216 -1381 -353 -1278
Q -491 -1175 -491 -1066
Q -491 -956 -414 -878
Q -338 -800 -234 -800
Q -153 -800 -69 -841
Q -16 -863 136 -998
Q 288 -1134 391 -1134
Q 466 -1134 537 -1076
Q 609 -1019 643 -883
Q 678 -747 678 -294
L 678 1744
Q 678 2216 650 2350
Q 628 2453 581 2492
Q 534 2531 453 2531
Q 366 2531 241 2484
L 197 2597
L 1059 2947
L 1194 2947
z
" transform="scale(0.015625)"/>
     </defs>
     <use xlink:href="#TimesNewRomanPSMT-6a"/>
     <use xlink:href="#TimesNewRomanPSMT-6f" transform="translate(27.783203 0)"/>
     <use xlink:href="#TimesNewRomanPSMT-69" transform="translate(77.783203 0)"/>
     <use xlink:href="#TimesNewRomanPSMT-6e" transform="translate(105.566406 0)"/>
     <use xlink:href="#TimesNewRomanPSMT-74" transform="translate(155.566406 0)"/>
     <use xlink:href="#TimesNewRomanPSMT-20" transform="translate(183.349609 0)"/>
     <use xlink:href="#TimesNewRomanPSMT-68" transform="translate(208.349609 0)"/>
     <use xlink:href="#TimesNewRomanPSMT-61" transform="translate(258.349609 0)"/>
     <use xlink:href="#TimesNewRomanPSMT-72" transform="translate(302.734375 0)"/>
     <use xlink:href="#TimesNewRomanPSMT-76" transform="translate(336.035156 0)"/>
     <use xlink:href="#TimesNewRomanPSMT-65" transform="translate(386.035156 0)"/>
     <use xlink:href="#TimesNewRomanPSMT-73" transform="translate(430.419922 0)"/>
     <use xlink:href="#TimesNewRomanPSMT-74" transform="translate(469.335938 0)"/>
     <use xlink:href="#TimesNewRomanPSMT-69" transform="translate(497.119141 0)"/>
     <use xlink:href="#TimesNewRomanPSMT-6e" transform="translate(524.902344 0)"/>
     <use xlink:href="#TimesNewRomanPSMT-67" transform="translate(574.902344 0)"/>
    </g>
    <!-- patch regeneration -->
    <g style="fill: #1f2933" transform="translate(214.869797 79.649224) scale(0.069 -0.069)">
     <use xlink:href="#TimesNewRomanPSMT-70"/>
     <use xlink:href="#TimesNewRomanPSMT-61" transform="translate(50 0)"/>
     <use xlink:href="#TimesNewRomanPSMT-74" transform="translate(94.384766 0)"/>
     <use xlink:href="#TimesNewRomanPSMT-63" transform="translate(122.167969 0)"/>
     <use xlink:href="#TimesNewRomanPSMT-68" transform="translate(166.552734 0)"/>
     <use xlink:href="#TimesNewRomanPSMT-20" transform="translate(216.552734 0)"/>
     <use xlink:href="#TimesNewRomanPSMT-72" transform="translate(241.552734 0)"/>
     <use xlink:href="#TimesNewRomanPSMT-65" transform="translate(274.853516 0)"/>
     <use xlink:href="#TimesNewRomanPSMT-67" transform="translate(319.238281 0)"/>
     <use xlink:href="#TimesNewRomanPSMT-65" transform="translate(369.238281 0)"/>
     <use xlink:href="#TimesNewRomanPSMT-6e" transform="translate(413.623047 0)"/>
     <use xlink:href="#TimesNewRomanPSMT-65" transform="translate(463.623047 0)"/>
     <use xlink:href="#TimesNewRomanPSMT-72" transform="translate(508.007812 0)"/>
     <use xlink:href="#TimesNewRomanPSMT-61" transform="translate(541.308594 0)"/>
     <use xlink:href="#TimesNewRomanPSMT-74" transform="translate(585.693359 0)"/>
     <use xlink:href="#TimesNewRomanPSMT-69" transform="translate(613.476562 0)"/>
     <use xlink:href="#TimesNewRomanPSMT-6f" transform="translate(641.259766 0)"/>
     <use xlink:href="#TimesNewRomanPSMT-6e" transform="translate(691.259766 0)"/>
    </g>
   </g>
   <g id="text_6">
    <!-- Next state -->
    <g style="fill: #1f2933" transform="translate(326.992359 65.579887) scale(0.069 -0.069)">
     <defs>
      <path id="TimesNewRomanPSMT-4e" d="M -84 4238
L 1066 4238
L 3656 1059
L 3656 3503
Q 3656 3894 3569 3991
Q 3453 4122 3203 4122
L 3056 4122
L 3056 4238
L 4531 4238
L 4531 4122
L 4381 4122
Q 4113 4122 4000 3959
Q 3931 3859 3931 3503
L 3931 -69
L 3819 -69
L 1025 3344
L 1025 734
Q 1025 344 1109 247
Q 1228 116 1475 116
L 1625 116
L 1625 0
L 150 0
L 150 116
L 297 116
Q 569 116 681 278
Q 750 378 750 734
L 750 3681
Q 566 3897 470 3965
Q 375 4034 191 4094
Q 100 4122 -84 4122
L -84 4238
z
" transform="scale(0.015625)"/>
      <path id="TimesNewRomanPSMT-78" d="M 84 2863
L 1431 2863
L 1431 2747
Q 1303 2747 1251 2703
Q 1200 2659 1200 2588
Q 1200 2513 1309 2356
Q 1344 2306 1413 2200
L 1616 1875
L 1850 2200
Q 2075 2509 2075 2591
Q 2075 2656 2022 2701
Q 1969 2747 1850 2747
L 1850 2863
L 2819 2863
L 2819 2747
Q 2666 2738 2553 2663
Q 2400 2556 2134 2200
L 1744 1678
L 2456 653
Q 2719 275 2831 198
Q 2944 122 3122 113
L 3122 0
L 1772 0
L 1772 113
Q 1913 113 1991 175
Q 2050 219 2050 291
Q 2050 363 1850 653
L 1431 1266
L 972 653
Q 759 369 759 316
Q 759 241 829 180
Q 900 119 1041 113
L 1041 0
L 106 0
L 106 113
Q 219 128 303 191
Q 422 281 703 653
L 1303 1450
L 759 2238
Q 528 2575 401 2661
Q 275 2747 84 2747
L 84 2863
z
" transform="scale(0.015625)"/>
     </defs>
     <use xlink:href="#TimesNewRomanPSMT-4e"/>
     <use xlink:href="#TimesNewRomanPSMT-65" transform="translate(72.216797 0)"/>
     <use xlink:href="#TimesNewRomanPSMT-78" transform="translate(116.601562 0)"/>
     <use xlink:href="#TimesNewRomanPSMT-74" transform="translate(166.601562 0)"/>
     <use xlink:href="#TimesNewRomanPSMT-20" transform="translate(194.384766 0)"/>
     <use xlink:href="#TimesNewRomanPSMT-73" transform="translate(219.384766 0)"/>
     <use xlink:href="#TimesNewRomanPSMT-74" transform="translate(258.300781 0)"/>
     <use xlink:href="#TimesNewRomanPSMT-61" transform="translate(286.083984 0)"/>
     <use xlink:href="#TimesNewRomanPSMT-74" transform="translate(330.46875 0)"/>
     <use xlink:href="#TimesNewRomanPSMT-65" transform="translate(358.251953 0)"/>
    </g>
    <!-- resource health -->
    <g style="fill: #1f2933" transform="translate(319.906922 72.613617) scale(0.069 -0.069)">
     <use xlink:href="#TimesNewRomanPSMT-72"/>
     <use xlink:href="#TimesNewRomanPSMT-65" transform="translate(33.300781 0)"/>
     <use xlink:href="#TimesNewRomanPSMT-73" transform="translate(77.685547 0)"/>
     <use xlink:href="#TimesNewRomanPSMT-6f" transform="translate(116.601562 0)"/>
     <use xlink:href="#TimesNewRomanPSMT-75" transform="translate(166.601562 0)"/>
     <use xlink:href="#TimesNewRomanPSMT-72" transform="translate(216.601562 0)"/>
     <use xlink:href="#TimesNewRomanPSMT-63" transform="translate(249.902344 0)"/>
     <use xlink:href="#TimesNewRomanPSMT-65" transform="translate(294.287109 0)"/>
     <use xlink:href="#TimesNewRomanPSMT-20" transform="translate(338.671875 0)"/>
     <use xlink:href="#TimesNewRomanPSMT-68" transform="translate(363.671875 0)"/>
     <use xlink:href="#TimesNewRomanPSMT-65" transform="translate(413.671875 0)"/>
     <use xlink:href="#TimesNewRomanPSMT-61" transform="translate(458.056641 0)"/>
     <use xlink:href="#TimesNewRomanPSMT-6c" transform="translate(502.441406 0)"/>
     <use xlink:href="#TimesNewRomanPSMT-74" transform="translate(530.224609 0)"/>
     <use xlink:href="#TimesNewRomanPSMT-68" transform="translate(558.007812 0)"/>
    </g>
    <!-- welfare -->
    <g style="fill: #1f2933" transform="translate(330.542086 79.647348) scale(0.069 -0.069)">
     <defs>
      <path id="TimesNewRomanPSMT-77" d="M 41 2863
L 1241 2863
L 1241 2747
Q 1075 2734 1023 2687
Q 972 2641 972 2553
Q 972 2456 1025 2319
L 1638 672
L 2253 2013
L 2091 2434
Q 2016 2622 1894 2694
Q 1825 2738 1638 2747
L 1638 2863
L 3000 2863
L 3000 2747
Q 2775 2738 2681 2666
Q 2619 2616 2619 2506
Q 2619 2444 2644 2378
L 3294 734
L 3897 2319
Q 3959 2488 3959 2588
Q 3959 2647 3898 2694
Q 3838 2741 3659 2747
L 3659 2863
L 4563 2863
L 4563 2747
Q 4291 2706 4163 2378
L 3206 -88
L 3078 -88
L 2363 1741
L 1528 -88
L 1413 -88
L 494 2319
Q 403 2547 315 2626
Q 228 2706 41 2747
L 41 2863
z
" transform="scale(0.015625)"/>
     </defs>
     <use xlink:href="#TimesNewRomanPSMT-77"/>
     <use xlink:href="#TimesNewRomanPSMT-65" transform="translate(72.216797 0)"/>
     <use xlink:href="#TimesNewRomanPSMT-6c" transform="translate(116.601562 0)"/>
     <use xlink:href="#TimesNewRomanPSMT-66" transform="translate(144.384766 0)"/>
     <use xlink:href="#TimesNewRomanPSMT-61" transform="translate(177.685547 0)"/>
     <use xlink:href="#TimesNewRomanPSMT-72" transform="translate(222.070312 0)"/>
     <use xlink:href="#TimesNewRomanPSMT-65" transform="translate(255.371094 0)"/>
    </g>
   </g>
   <g id="text_7">
    <!-- Oversight architecture -->
    <g style="fill: #1f2933" transform="translate(75.495797 128.404614) scale(0.069 -0.069)">
     <defs>
      <path id="TimesNewRomanPSMT-4f" d="M 2341 4334
Q 3166 4334 3770 3707
Q 4375 3081 4375 2144
Q 4375 1178 3765 540
Q 3156 -97 2291 -97
Q 1416 -97 820 525
Q 225 1147 225 2134
Q 225 3144 913 3781
Q 1509 4334 2341 4334
z
M 2281 4106
Q 1713 4106 1369 3684
Q 941 3159 941 2147
Q 941 1109 1384 550
Q 1725 125 2284 125
Q 2881 125 3270 590
Q 3659 1056 3659 2059
Q 3659 3147 3231 3681
Q 2888 4106 2281 4106
z
" transform="scale(0.015625)"/>
     </defs>
     <use xlink:href="#TimesNewRomanPSMT-4f"/>
     <use xlink:href="#TimesNewRomanPSMT-76" transform="translate(72.216797 0)"/>
     <use xlink:href="#TimesNewRomanPSMT-65" transform="translate(122.216797 0)"/>
     <use xlink:href="#TimesNewRomanPSMT-72" transform="translate(166.601562 0)"/>
     <use xlink:href="#TimesNewRomanPSMT-73" transform="translate(199.902344 0)"/>
     <use xlink:href="#TimesNewRomanPSMT-69" transform="translate(238.818359 0)"/>
     <use xlink:href="#TimesNewRomanPSMT-67" transform="translate(266.601562 0)"/>
     <use xlink:href="#TimesNewRomanPSMT-68" transform="translate(316.601562 0)"/>
     <use xlink:href="#TimesNewRomanPSMT-74" transform="translate(366.601562 0)"/>
     <use xlink:href="#TimesNewRomanPSMT-20" transform="translate(394.384766 0)"/>
     <use xlink:href="#TimesNewRomanPSMT-61" transform="translate(419.384766 0)"/>
     <use xlink:href="#TimesNewRomanPSMT-72" transform="translate(463.769531 0)"/>
     <use xlink:href="#TimesNewRomanPSMT-63" transform="translate(497.070312 0)"/>
     <use xlink:href="#TimesNewRomanPSMT-68" transform="translate(541.455078 0)"/>
     <use xlink:href="#TimesNewRomanPSMT-69" transform="translate(591.455078 0)"/>
     <use xlink:href="#TimesNewRomanPSMT-74" transform="translate(619.238281 0)"/>
     <use xlink:href="#TimesNewRomanPSMT-65" transform="translate(647.021484 0)"/>
     <use xlink:href="#TimesNewRomanPSMT-63" transform="translate(691.40625 0)"/>
     <use xlink:href="#TimesNewRomanPSMT-74" transform="translate(735.791016 0)"/>
     <use xlink:href="#TimesNewRomanPSMT-75" transform="translate(763.574219 0)"/>
     <use xlink:href="#TimesNewRomanPSMT-72" transform="translate(813.574219 0)"/>
     <use xlink:href="#TimesNewRomanPSMT-65" transform="translate(846.875 0)"/>
    </g>
    <!-- local / global signal / hybrid -->
    <g style="fill: #1f2933" transform="translate(67.438969 135.451282) scale(0.069 -0.069)">
     <defs>
      <path id="TimesNewRomanPSMT-2f" d="M 1794 4444
L 259 -88
L 9 -88
L 1544 4444
L 1794 4444
z
" transform="scale(0.015625)"/>
     </defs>
     <use xlink:href="#TimesNewRomanPSMT-6c"/>
     <use xlink:href="#TimesNewRomanPSMT-6f" transform="translate(27.783203 0)"/>
     <use xlink:href="#TimesNewRomanPSMT-63" transform="translate(77.783203 0)"/>
     <use xlink:href="#TimesNewRomanPSMT-61" transform="translate(122.167969 0)"/>
     <use xlink:href="#TimesNewRomanPSMT-6c" transform="translate(166.552734 0)"/>
     <use xlink:href="#TimesNewRomanPSMT-20" transform="translate(194.335938 0)"/>
     <use xlink:href="#TimesNewRomanPSMT-2f" transform="translate(219.335938 0)"/>
     <use xlink:href="#TimesNewRomanPSMT-20" transform="translate(247.119141 0)"/>
     <use xlink:href="#TimesNewRomanPSMT-67" transform="translate(272.119141 0)"/>
     <use xlink:href="#TimesNewRomanPSMT-6c" transform="translate(322.119141 0)"/>
     <use xlink:href="#TimesNewRomanPSMT-6f" transform="translate(349.902344 0)"/>
     <use xlink:href="#TimesNewRomanPSMT-62" transform="translate(399.902344 0)"/>
     <use xlink:href="#TimesNewRomanPSMT-61" transform="translate(449.902344 0)"/>
     <use xlink:href="#TimesNewRomanPSMT-6c" transform="translate(494.287109 0)"/>
     <use xlink:href="#TimesNewRomanPSMT-20" transform="translate(522.070312 0)"/>
     <use xlink:href="#TimesNewRomanPSMT-73" transform="translate(547.070312 0)"/>
     <use xlink:href="#TimesNewRomanPSMT-69" transform="translate(585.986328 0)"/>
     <use xlink:href="#TimesNewRomanPSMT-67" transform="translate(613.769531 0)"/>
     <use xlink:href="#TimesNewRomanPSMT-6e" transform="translate(663.769531 0)"/>
     <use xlink:href="#TimesNewRomanPSMT-61" transform="translate(713.769531 0)"/>
     <use xlink:href="#TimesNewRomanPSMT-6c" transform="translate(758.154297 0)"/>
     <use xlink:href="#TimesNewRomanPSMT-20" transform="translate(785.9375 0)"/>
     <use xlink:href="#TimesNewRomanPSMT-2f" transform="translate(810.9375 0)"/>
     <use xlink:href="#TimesNewRomanPSMT-20" transform="translate(838.720703 0)"/>
     <use xlink:href="#TimesNewRomanPSMT-68" transform="translate(863.720703 0)"/>
     <use xlink:href="#TimesNewRomanPSMT-79" transform="translate(913.720703 0)"/>
     <use xlink:href="#TimesNewRomanPSMT-62" transform="translate(963.720703 0)"/>
     <use xlink:href="#TimesNewRomanPSMT-72" transform="translate(1013.720703 0)"/>
     <use xlink:href="#TimesNewRomanPSMT-69" transform="translate(1047.021484 0)"/>
     <use xlink:href="#TimesNewRomanPSMT-64" transform="translate(1074.804688 0)"/>
    </g>
   </g>
   <g id="text_8">
    <!-- Overseer limits -->
    <g style="fill: #1f2933" transform="translate(280.371164 128.411083) scale(0.069 -0.069)">
     <use xlink:href="#TimesNewRomanPSMT-4f"/>
     <use xlink:href="#TimesNewRomanPSMT-76" transform="translate(72.216797 0)"/>
     <use xlink:href="#TimesNewRomanPSMT-65" transform="translate(122.216797 0)"/>
     <use xlink:href="#TimesNewRomanPSMT-72" transform="translate(166.601562 0)"/>
     <use xlink:href="#TimesNewRomanPSMT-73" transform="translate(199.902344 0)"/>
     <use xlink:href="#TimesNewRomanPSMT-65" transform="translate(238.818359 0)"/>
     <use xlink:href="#TimesNewRomanPSMT-65" transform="translate(283.203125 0)"/>
     <use xlink:href="#TimesNewRomanPSMT-72" transform="translate(327.587891 0)"/>
     <use xlink:href="#TimesNewRomanPSMT-20" transform="translate(360.888672 0)"/>
     <use xlink:href="#TimesNewRomanPSMT-6c" transform="translate(385.888672 0)"/>
     <use xlink:href="#TimesNewRomanPSMT-69" transform="translate(413.671875 0)"/>
     <use xlink:href="#TimesNewRomanPSMT-6d" transform="translate(441.455078 0)"/>
     <use xlink:href="#TimesNewRomanPSMT-69" transform="translate(519.238281 0)"/>
     <use xlink:href="#TimesNewRomanPSMT-74" transform="translate(547.021484 0)"/>
     <use xlink:href="#TimesNewRomanPSMT-73" transform="translate(574.804688 0)"/>
    </g>
    <!-- recall, delay, capacity, cost -->
    <g style="fill: #1f2933" transform="translate(264.636469 135.444814) scale(0.069 -0.069)">
     <defs>
      <path id="TimesNewRomanPSMT-2c" d="M 344 -1066
L 344 -928
Q 666 -822 842 -598
Q 1019 -375 1019 -125
Q 1019 -66 991 -25
Q 969 3 947 3
Q 913 3 797 -59
Q 741 -88 678 -88
Q 525 -88 434 3
Q 344 94 344 253
Q 344 406 461 515
Q 578 625 747 625
Q 953 625 1114 445
Q 1275 266 1275 -31
Q 1275 -353 1051 -629
Q 828 -906 344 -1066
z
" transform="scale(0.015625)"/>
     </defs>
     <use xlink:href="#TimesNewRomanPSMT-72"/>
     <use xlink:href="#TimesNewRomanPSMT-65" transform="translate(33.300781 0)"/>
     <use xlink:href="#TimesNewRomanPSMT-63" transform="translate(77.685547 0)"/>
     <use xlink:href="#TimesNewRomanPSMT-61" transform="translate(122.070312 0)"/>
     <use xlink:href="#TimesNewRomanPSMT-6c" transform="translate(166.455078 0)"/>
     <use xlink:href="#TimesNewRomanPSMT-6c" transform="translate(194.238281 0)"/>
     <use xlink:href="#TimesNewRomanPSMT-2c" transform="translate(222.021484 0)"/>
     <use xlink:href="#TimesNewRomanPSMT-20" transform="translate(247.021484 0)"/>
     <use xlink:href="#TimesNewRomanPSMT-64" transform="translate(272.021484 0)"/>
     <use xlink:href="#TimesNewRomanPSMT-65" transform="translate(322.021484 0)"/>
     <use xlink:href="#TimesNewRomanPSMT-6c" transform="translate(366.40625 0)"/>
     <use xlink:href="#TimesNewRomanPSMT-61" transform="translate(394.189453 0)"/>
     <use xlink:href="#TimesNewRomanPSMT-79" transform="translate(438.574219 0)"/>
     <use xlink:href="#TimesNewRomanPSMT-2c" transform="translate(482.074219 0)"/>
     <use xlink:href="#TimesNewRomanPSMT-20" transform="translate(507.074219 0)"/>
     <use xlink:href="#TimesNewRomanPSMT-63" transform="translate(532.074219 0)"/>
     <use xlink:href="#TimesNewRomanPSMT-61" transform="translate(576.458984 0)"/>
     <use xlink:href="#TimesNewRomanPSMT-70" transform="translate(620.84375 0)"/>
     <use xlink:href="#TimesNewRomanPSMT-61" transform="translate(670.84375 0)"/>
     <use xlink:href="#TimesNewRomanPSMT-63" transform="translate(715.228516 0)"/>
     <use xlink:href="#TimesNewRomanPSMT-69" transform="translate(759.613281 0)"/>
     <use xlink:href="#TimesNewRomanPSMT-74" transform="translate(787.396484 0)"/>
     <use xlink:href="#TimesNewRomanPSMT-79" transform="translate(815.179688 0)"/>
     <use xlink:href="#TimesNewRomanPSMT-2c" transform="translate(858.679688 0)"/>
     <use xlink:href="#TimesNewRomanPSMT-20" transform="translate(883.679688 0)"/>
     <use xlink:href="#TimesNewRomanPSMT-63" transform="translate(908.679688 0)"/>
     <use xlink:href="#TimesNewRomanPSMT-6f" transform="translate(953.064453 0)"/>
     <use xlink:href="#TimesNewRomanPSMT-73" transform="translate(1003.064453 0)"/>
     <use xlink:href="#TimesNewRomanPSMT-74" transform="translate(1041.980469 0)"/>
    </g>
   </g>
   <g id="text_9">
    <!-- Local check -->
    <g style="fill: #1f2933" transform="translate(37.89 183.4992) scale(0.08 -0.08)">
     <defs>
      <path id="TimesNewRomanPS-BoldMT-4c" d="M 4041 1488
L 3881 0
L 119 0
L 119 116
L 259 116
Q 444 116 556 181
Q 638 225 681 331
Q 716 406 716 725
L 716 3513
Q 716 3838 681 3919
Q 647 4000 542 4061
Q 438 4122 259 4122
L 119 4122
L 119 4238
L 2378 4238
L 2378 4122
L 2194 4122
Q 2009 4122 1897 4056
Q 1816 4013 1769 3906
Q 1734 3831 1734 3513
L 1734 813
Q 1734 488 1771 398
Q 1809 309 1919 266
Q 1997 238 2297 238
L 2650 238
Q 2988 238 3213 356
Q 3438 475 3602 731
Q 3766 988 3913 1488
L 4041 1488
z
" transform="scale(0.015625)"/>
      <path id="TimesNewRomanPS-BoldMT-6f" d="M 1594 3009
Q 1975 3009 2303 2812
Q 2631 2616 2801 2253
Q 2972 1891 2972 1459
Q 2972 838 2656 419
Q 2275 -88 1603 -88
Q 944 -88 587 375
Q 231 838 231 1447
Q 231 2075 595 2542
Q 959 3009 1594 3009
z
M 1606 2788
Q 1447 2788 1333 2667
Q 1219 2547 1183 2192
Q 1147 1838 1147 1206
Q 1147 872 1191 581
Q 1225 359 1337 243
Q 1450 128 1594 128
Q 1734 128 1828 206
Q 1950 313 1991 503
Q 2053 800 2053 1703
Q 2053 2234 1993 2432
Q 1934 2631 1819 2722
Q 1738 2788 1606 2788
z
" transform="scale(0.015625)"/>
      <path id="TimesNewRomanPS-BoldMT-6c" d="M 1359 4238
L 1359 606
Q 1359 297 1431 211
Q 1503 125 1713 113
L 1713 0
L 134 0
L 134 113
Q 328 119 422 225
Q 484 297 484 606
L 484 3631
Q 484 3938 412 4023
Q 341 4109 134 4122
L 134 4238
L 1359 4238
z
" transform="scale(0.015625)"/>
     </defs>
     <use xlink:href="#TimesNewRomanPS-BoldMT-4c"/>
     <use xlink:href="#TimesNewRomanPS-BoldMT-6f" transform="translate(66.699219 0)"/>
     <use xlink:href="#TimesNewRomanPS-BoldMT-63" transform="translate(116.699219 0)"/>
     <use xlink:href="#TimesNewRomanPS-BoldMT-61" transform="translate(161.083984 0)"/>
     <use xlink:href="#TimesNewRomanPS-BoldMT-6c" transform="translate(211.083984 0)"/>
     <use xlink:href="#TimesNewRomanPS-BoldMT-20" transform="translate(238.867188 0)"/>
     <use xlink:href="#TimesNewRomanPS-BoldMT-63" transform="translate(263.867188 0)"/>
     <use xlink:href="#TimesNewRomanPS-BoldMT-68" transform="translate(308.251953 0)"/>
     <use xlink:href="#TimesNewRomanPS-BoldMT-65" transform="translate(363.867188 0)"/>
     <use xlink:href="#TimesNewRomanPS-BoldMT-63" transform="translate(408.251953 0)"/>
     <use xlink:href="#TimesNewRomanPS-BoldMT-6b" transform="translate(452.636719 0)"/>
    </g>
   </g>
   <g id="text_10">
    <!-- $a_{i,t} \leq a_{\mathrm{sust}}+\epsilon$ -->
    <g style="fill: #1f2933" transform="translate(86.436 183.4992) scale(0.082 -0.082)">
     <defs>
      <path id="STIXGeneral-Italic-61" d="M 2963 710
L 3046 640
Q 2688 205 2518 70
Q 2349 -64 2157 -64
Q 1901 -64 1901 198
Q 1901 358 2048 934
Q 1690 397 1389 163
Q 1088 -70 749 -70
Q 467 -70 288 125
Q 109 320 109 672
Q 109 1158 387 1664
Q 666 2170 1094 2496
Q 1523 2822 1939 2822
Q 2368 2822 2451 2451
L 2522 2758
L 2541 2778
L 2931 2822
L 2976 2803
Q 2970 2778 2938 2669
Q 2368 595 2368 346
Q 2368 262 2458 262
Q 2554 262 2790 525
L 2963 710
z
M 2336 2310
Q 2336 2477 2240 2579
Q 2144 2682 1978 2682
Q 1542 2682 1139 2093
Q 928 1779 787 1395
Q 646 1011 646 717
Q 646 243 1030 243
Q 1408 243 1843 870
Q 2336 1581 2336 2310
z
" transform="scale(0.015625)"/>
      <path id="STIXGeneral-Italic-69" d="M 1690 3834
Q 1690 3699 1597 3603
Q 1504 3507 1376 3507
Q 1235 3507 1152 3600
Q 1069 3693 1069 3846
Q 1069 3994 1155 4090
Q 1242 4186 1370 4186
Q 1498 4186 1594 4080
Q 1690 3974 1690 3834
z
M 1421 730
L 1504 659
Q 1235 243 1049 86
Q 864 -70 627 -70
Q 314 -70 314 282
Q 314 467 454 992
L 762 2125
Q 819 2330 819 2406
Q 819 2502 745 2528
Q 672 2554 410 2560
L 410 2662
Q 704 2688 1434 2822
L 1459 2803
L 858 608
Q 794 390 794 326
Q 794 230 883 230
Q 1043 230 1421 730
z
" transform="scale(0.015625)"/>
      <path id="STIXGeneral-Regular-2c" d="M 531 -902
L 467 -781
Q 998 -422 998 -96
Q 998 -13 909 -13
Q 883 -13 822 -25
Q 762 -38 723 -38
Q 352 -38 352 288
Q 352 454 457 553
Q 563 653 736 653
Q 954 653 1101 496
Q 1248 339 1248 96
Q 1248 -198 1053 -473
Q 858 -749 531 -902
z
" transform="scale(0.015625)"/>
      <path id="STIXGeneral-Italic-74" d="M 1894 2739
L 1862 2534
L 1325 2534
L 768 435
Q 755 384 755 346
Q 755 243 851 243
Q 928 243 1030 342
Q 1133 442 1370 749
L 1453 704
Q 1158 256 969 93
Q 781 -70 538 -70
Q 243 -70 243 166
Q 243 230 346 640
L 845 2534
L 365 2534
L 358 2573
Q 358 2688 570 2733
Q 730 2771 992 2979
Q 1254 3187 1421 3437
Q 1459 3494 1510 3494
Q 1568 3494 1568 3443
Q 1568 3411 1562 3398
L 1382 2739
L 1894 2739
z
" transform="scale(0.015625)"/>
      <path id="STIXGeneral-Regular-2264" d="M 4026 326
L 410 2074
L 410 2138
L 4026 3898
L 4026 3482
L 1261 2106
L 4026 730
L 4026 326
z
M 4026 -659
L 410 -659
L 410 -237
L 4026 -237
L 4026 -659
z
" transform="scale(0.015625)"/>
      <path id="STIXGeneral-Regular-73" d="M 998 1926
L 1664 1523
Q 1984 1331 2105 1164
Q 2227 998 2227 736
Q 2227 416 1961 176
Q 1696 -64 1331 -64
Q 1030 -64 864 -6
Q 691 51 570 51
Q 461 51 416 -26
L 333 -26
L 333 979
L 435 979
Q 538 512 730 294
Q 922 77 1248 77
Q 1485 77 1632 211
Q 1779 346 1779 550
Q 1779 845 1440 1030
L 1094 1222
Q 326 1651 326 2150
Q 326 2522 566 2730
Q 806 2938 1210 2938
Q 1491 2938 1638 2867
Q 1754 2816 1818 2816
Q 1862 2816 1920 2880
L 1990 2880
L 2022 2010
L 1926 2010
Q 1818 2445 1654 2621
Q 1491 2797 1203 2797
Q 986 2797 854 2688
Q 723 2579 723 2362
Q 723 2253 796 2128
Q 870 2003 998 1926
z
" transform="scale(0.015625)"/>
      <path id="STIXGeneral-Regular-75" d="M 3072 320
L 3072 230
Q 2573 96 2195 -58
L 2163 -38
L 2163 486
L 2150 486
Q 1747 -64 1235 -64
Q 870 -64 662 160
Q 454 384 454 755
L 454 2362
Q 454 2598 371 2688
Q 288 2778 58 2790
L 58 2880
L 992 2880
L 992 813
Q 992 595 1123 451
Q 1254 307 1446 307
Q 1760 307 1984 506
Q 2067 582 2099 649
Q 2131 717 2131 877
L 2131 2355
Q 2131 2605 2041 2678
Q 1952 2752 1658 2771
L 1658 2880
L 2669 2880
L 2669 685
Q 2669 461 2742 390
Q 2816 320 3034 320
L 3072 320
z
" transform="scale(0.015625)"/>
      <path id="STIXGeneral-Regular-74" d="M 1702 493
L 1786 422
Q 1478 -64 1011 -64
Q 448 -64 448 749
L 448 2675
L 109 2675
Q 83 2694 83 2720
Q 83 2771 192 2842
Q 435 2982 813 3526
Q 826 3546 874 3606
Q 922 3667 941 3706
Q 986 3706 986 3622
L 986 2880
L 1632 2880
L 1632 2675
L 986 2675
L 986 845
Q 986 538 1062 403
Q 1139 269 1318 269
Q 1510 269 1702 493
z
" transform="scale(0.015625)"/>
      <path id="STIXGeneral-Regular-2b" d="M 4070 1408
L 2400 1408
L 2400 -262
L 1978 -262
L 1978 1408
L 307 1408
L 307 1830
L 1978 1830
L 1978 3501
L 2400 3501
L 2400 1830
L 4070 1830
L 4070 1408
z
" transform="scale(0.015625)"/>
      <path id="STIXGeneral-Italic-3b5" d="M 2304 627
L 2406 563
Q 1907 -70 1133 -70
Q 192 -70 192 640
Q 192 928 403 1158
Q 614 1389 934 1472
Q 774 1498 684 1616
Q 595 1734 595 1882
Q 602 2266 995 2544
Q 1389 2822 2029 2822
Q 2336 2822 2528 2672
Q 2720 2522 2720 2291
Q 2720 2163 2617 2080
Q 2515 1997 2413 1997
Q 2298 1997 2230 2067
Q 2163 2138 2163 2253
Q 2163 2317 2211 2409
Q 2259 2502 2259 2560
Q 2259 2688 2022 2688
Q 1683 2688 1401 2496
Q 1120 2304 1120 1907
Q 1120 1741 1251 1654
Q 1382 1568 1594 1568
Q 1613 1568 1728 1590
Q 1843 1613 1932 1613
Q 2022 1613 2086 1574
Q 2150 1536 2150 1478
Q 2150 1306 1862 1306
Q 1805 1306 1721 1334
Q 1638 1363 1568 1363
Q 1286 1363 1014 1184
Q 742 1005 742 678
Q 742 410 908 285
Q 1075 160 1312 160
Q 1869 160 2304 627
z
" transform="scale(0.015625)"/>
     </defs>
     <use xlink:href="#STIXGeneral-Italic-61" transform="translate(0 0.09375)"/>
     <use xlink:href="#STIXGeneral-Italic-69" transform="translate(50.099991 -13.134375) scale(0.7)"/>
     <use xlink:href="#STIXGeneral-Regular-2c" transform="translate(69.559982 -13.134375) scale(0.7)"/>
     <use xlink:href="#STIXGeneral-Italic-74" transform="translate(97.167969 -13.134375) scale(0.7)"/>
     <use xlink:href="#STIXGeneral-Regular-2264" transform="translate(135.477332 0.09375)"/>
     <use xlink:href="#STIXGeneral-Italic-61" transform="translate(218.417313 0.09375)"/>
     <use xlink:href="#STIXGeneral-Regular-73" transform="translate(268.517304 -13.134375) scale(0.7)"/>
     <use xlink:href="#STIXGeneral-Regular-75" transform="translate(295.747299 -13.134375) scale(0.7)"/>
     <use xlink:href="#STIXGeneral-Regular-73" transform="translate(330.747289 -13.134375) scale(0.7)"/>
     <use xlink:href="#STIXGeneral-Regular-74" transform="translate(357.977285 -13.134375) scale(0.7)"/>
     <use xlink:href="#STIXGeneral-Regular-2b" transform="translate(396.286647 0.09375)"/>
     <use xlink:href="#STIXGeneral-Italic-3b5" transform="translate(479.226628 0.09375)"/>
    </g>
   </g>
   <g id="text_11">
    <!-- Global check -->
    <g style="fill: #1f2933" transform="translate(218.124 183.4992) scale(0.08 -0.08)">
     <defs>
      <path id="TimesNewRomanPS-BoldMT-47" d="M 4416 4334
L 4416 2841
L 4300 2841
Q 4091 3453 3672 3772
Q 3253 4091 2756 4091
Q 2281 4091 1965 3823
Q 1650 3556 1519 3078
Q 1388 2600 1388 2097
Q 1388 1488 1531 1028
Q 1675 569 1995 353
Q 2316 138 2756 138
Q 2909 138 3070 170
Q 3231 203 3400 266
L 3400 1147
Q 3400 1397 3365 1470
Q 3331 1544 3223 1603
Q 3116 1663 2963 1663
L 2853 1663
L 2853 1778
L 4913 1778
L 4913 1663
Q 4678 1647 4586 1598
Q 4494 1550 4444 1438
Q 4416 1378 4416 1147
L 4416 266
Q 4009 84 3570 -8
Q 3131 -100 2659 -100
Q 2056 -100 1657 64
Q 1259 228 954 495
Q 650 763 478 1097
Q 259 1528 259 2063
Q 259 3019 931 3678
Q 1603 4338 2622 4338
Q 2938 4338 3191 4288
Q 3328 4263 3636 4145
Q 3944 4028 4000 4028
Q 4088 4028 4163 4092
Q 4238 4156 4300 4334
L 4416 4334
z
" transform="scale(0.015625)"/>
      <path id="TimesNewRomanPS-BoldMT-62" d="M 1347 4238
L 1347 2628
Q 1716 3009 2153 3009
Q 2453 3009 2718 2832
Q 2984 2656 3134 2331
Q 3284 2006 3284 1581
Q 3284 1103 3093 712
Q 2903 322 2584 117
Q 2266 -88 1856 -88
Q 1619 -88 1434 -12
Q 1250 63 1072 231
L 588 -84
L 481 -84
L 481 3631
Q 481 3884 459 3944
Q 428 4031 361 4073
Q 294 4116 134 4122
L 134 4238
L 1347 4238
z
M 1347 2350
L 1347 1050
Q 1347 653 1366 544
Q 1397 359 1515 245
Q 1634 131 1819 131
Q 1978 131 2092 222
Q 2206 313 2282 581
Q 2359 850 2359 1550
Q 2359 2222 2191 2472
Q 2069 2653 1863 2653
Q 1594 2653 1347 2350
z
" transform="scale(0.015625)"/>
     </defs>
     <use xlink:href="#TimesNewRomanPS-BoldMT-47"/>
     <use xlink:href="#TimesNewRomanPS-BoldMT-6c" transform="translate(77.783203 0)"/>
     <use xlink:href="#TimesNewRomanPS-BoldMT-6f" transform="translate(105.566406 0)"/>
     <use xlink:href="#TimesNewRomanPS-BoldMT-62" transform="translate(155.566406 0)"/>
     <use xlink:href="#TimesNewRomanPS-BoldMT-61" transform="translate(211.181641 0)"/>
     <use xlink:href="#TimesNewRomanPS-BoldMT-6c" transform="translate(261.181641 0)"/>
     <use xlink:href="#TimesNewRomanPS-BoldMT-20" transform="translate(288.964844 0)"/>
     <use xlink:href="#TimesNewRomanPS-BoldMT-63" transform="translate(313.964844 0)"/>
     <use xlink:href="#TimesNewRomanPS-BoldMT-68" transform="translate(358.349609 0)"/>
     <use xlink:href="#TimesNewRomanPS-BoldMT-65" transform="translate(413.964844 0)"/>
     <use xlink:href="#TimesNewRomanPS-BoldMT-63" transform="translate(458.349609 0)"/>
     <use xlink:href="#TimesNewRomanPS-BoldMT-6b" transform="translate(502.734375 0)"/>
    </g>
   </g>
   <g id="text_12">
    <!-- $\bar{p}_{t+1}\geq\tau_p,\ f_{t+1}&lt;\tau_f$ -->
    <g style="fill: #1f2933" transform="translate(270.576 183.4992) scale(0.082 -0.082)">
     <defs>
      <path id="STIXGeneral-Regular-304" d="M -474 3501
L -2464 3501
L -2464 3846
L -474 3846
L -474 3501
z
" transform="scale(0.015625)"/>
      <path id="STIXGeneral-Italic-70" d="M 1376 2739
L 1190 2099
Q 1670 2822 2285 2822
Q 2637 2822 2829 2611
Q 3021 2400 3021 2022
Q 3021 1235 2422 582
Q 1824 -70 1120 -70
Q 890 -70 678 38
Q 422 -1018 422 -1024
Q 422 -1126 508 -1168
Q 595 -1210 819 -1210
L 819 -1312
L -480 -1312
L -480 -1210
Q -275 -1203 -188 -1120
Q -102 -1037 -45 -806
L 691 1958
Q 794 2330 794 2413
Q 794 2586 512 2586
L 371 2586
L 358 2682
L 1357 2822
Q 1389 2822 1389 2797
Q 1382 2765 1376 2739
z
M 2445 2003
Q 2445 2285 2352 2416
Q 2259 2547 2048 2547
Q 1798 2547 1548 2329
Q 1299 2112 1184 1818
Q 1043 1453 905 953
Q 768 454 768 294
Q 768 186 854 118
Q 941 51 1075 51
Q 1574 51 2003 659
Q 2445 1274 2445 2003
z
" transform="scale(0.015625)"/>
      <path id="STIXGeneral-Regular-31" d="M 2522 0
L 755 0
L 755 96
Q 1107 115 1235 227
Q 1363 339 1363 608
L 1363 3482
Q 1363 3795 1171 3795
Q 1082 3795 883 3718
L 710 3654
L 710 3744
L 1856 4326
L 1914 4307
L 1914 486
Q 1914 275 2042 185
Q 2170 96 2522 96
L 2522 0
z
" transform="scale(0.015625)"/>
      <path id="STIXGeneral-Regular-2265" d="M 4026 2074
L 410 326
L 410 730
L 3174 2106
L 410 3482
L 410 3898
L 4026 2138
L 4026 2074
z
M 4026 -659
L 410 -659
L 410 -237
L 4026 -237
L 4026 -659
z
" transform="scale(0.015625)"/>
      <path id="STIXGeneral-Italic-3c4" d="M 2726 2739
L 2592 2266
L 1741 2266
Q 1293 1248 1293 742
Q 1293 416 1523 416
Q 1638 416 1779 547
Q 1920 678 2003 858
L 2106 858
Q 1990 467 1731 198
Q 1472 -70 1178 -70
Q 768 -70 768 384
Q 768 890 1395 2266
L 1005 2266
Q 493 2266 179 1702
L 77 1702
Q 237 2093 569 2416
Q 902 2739 1331 2739
L 2726 2739
z
" transform="scale(0.015625)"/>
      <path id="STIXGeneral-Italic-66" d="M 262 2739
L 858 2739
Q 1107 3546 1318 3846
Q 1664 4339 2163 4339
Q 2400 4339 2557 4227
Q 2714 4115 2714 3942
Q 2714 3834 2634 3750
Q 2554 3667 2445 3667
Q 2355 3667 2281 3737
Q 2208 3808 2208 3917
Q 2208 3981 2240 4038
Q 2272 4096 2272 4115
Q 2272 4198 2131 4198
Q 1862 4198 1676 3849
Q 1491 3501 1350 2739
L 2035 2739
L 1997 2534
L 1306 2534
L 845 486
Q 435 -1325 -435 -1325
Q -653 -1325 -797 -1213
Q -941 -1101 -941 -934
Q -941 -826 -870 -746
Q -800 -666 -698 -666
Q -589 -666 -521 -733
Q -454 -800 -454 -902
Q -454 -947 -483 -1001
Q -512 -1056 -512 -1088
Q -512 -1190 -384 -1190
Q 13 -1190 237 -154
L 800 2534
L 218 2534
L 262 2739
z
" transform="scale(0.015625)"/>
      <path id="STIXGeneral-Regular-3c" d="M 3974 -154
L 358 1594
L 358 1658
L 3974 3418
L 3974 3002
L 1210 1626
L 3974 250
L 3974 -154
z
" transform="scale(0.015625)"/>
     </defs>
     <use xlink:href="#STIXGeneral-Regular-304" transform="translate(54.099998 2.09375)"/>
     <use xlink:href="#STIXGeneral-Italic-70" transform="translate(0 0.203125)"/>
     <use xlink:href="#STIXGeneral-Italic-74" transform="translate(51.943275 -13.025) scale(0.7)"/>
     <use xlink:href="#STIXGeneral-Regular-2b" transform="translate(81.511264 -13.025) scale(0.7)"/>
     <use xlink:href="#STIXGeneral-Regular-31" transform="translate(139.569251 -13.025) scale(0.7)"/>
     <use xlink:href="#STIXGeneral-Regular-2265" transform="translate(193.418611 0.203125)"/>
     <use xlink:href="#STIXGeneral-Italic-3c4" transform="translate(276.358593 0.203125)"/>
     <use xlink:href="#STIXGeneral-Italic-70" transform="translate(317.358577 -13.025) scale(0.7)"/>
     <use xlink:href="#STIXGeneral-Regular-2c" transform="translate(357.047948 0.203125)"/>
     <use xlink:href="#STIXGeneral-Italic-66" transform="translate(420.554349 0.203125)"/>
     <use xlink:href="#STIXGeneral-Italic-74" transform="translate(448.354337 -13.025) scale(0.7)"/>
     <use xlink:href="#STIXGeneral-Regular-2b" transform="translate(477.922326 -13.025) scale(0.7)"/>
     <use xlink:href="#STIXGeneral-Regular-31" transform="translate(535.980312 -13.025) scale(0.7)"/>
     <use xlink:href="#STIXGeneral-Regular-3c" transform="translate(589.829673 0.203125)"/>
     <use xlink:href="#STIXGeneral-Italic-3c4" transform="translate(672.769654 0.203125)"/>
     <use xlink:href="#STIXGeneral-Italic-66" transform="translate(713.769639 -13.025) scale(0.7)"/>
    </g>
   </g>
   <g id="text_13">
    <!-- Local-pass/global-fail records steps where every local request passes but the aggregate state is unsafe. -->
    <g style="fill: #1f2933" transform="translate(37.89 205.6752) scale(0.075 -0.075)">
     <defs>
      <path id="TimesNewRomanPSMT-4c" d="M 3669 1172
L 3772 1150
L 3409 0
L 128 0
L 128 116
L 288 116
Q 556 116 672 291
Q 738 391 738 753
L 738 3488
Q 738 3884 650 3984
Q 528 4122 288 4122
L 128 4122
L 128 4238
L 2047 4238
L 2047 4122
Q 1709 4125 1573 4059
Q 1438 3994 1388 3894
Q 1338 3794 1338 3416
L 1338 753
Q 1338 494 1388 397
Q 1425 331 1503 300
Q 1581 269 1991 269
L 2300 269
Q 2788 269 2984 341
Q 3181 413 3343 595
Q 3506 778 3669 1172
z
" transform="scale(0.015625)"/>
      <path id="TimesNewRomanPSMT-71" d="M 2734 2947
L 2734 -734
Q 2734 -1009 2771 -1087
Q 2809 -1166 2889 -1209
Q 2969 -1253 3200 -1253
L 3200 -1369
L 1756 -1369
L 1756 -1253
L 1816 -1253
Q 1991 -1253 2081 -1203
Q 2144 -1169 2181 -1080
Q 2219 -991 2219 -734
L 2219 497
Q 1934 159 1721 35
Q 1509 -88 1281 -88
Q 866 -88 539 290
Q 213 669 213 1303
Q 213 2031 644 2489
Q 1075 2947 1684 2947
Q 1863 2947 2013 2897
Q 2163 2847 2281 2747
Q 2463 2834 2628 2947
L 2734 2947
z
M 2219 694
L 2219 2038
Q 2219 2272 2158 2406
Q 2097 2541 1940 2634
Q 1784 2728 1588 2728
Q 1238 2728 988 2431
Q 738 2134 738 1531
Q 738 953 992 653
Q 1247 353 1606 353
Q 1791 353 1934 433
Q 2078 513 2219 694
z
" transform="scale(0.015625)"/>
     </defs>
     <use xlink:href="#TimesNewRomanPSMT-4c"/>
     <use xlink:href="#TimesNewRomanPSMT-6f" transform="translate(61.083984 0)"/>
     <use xlink:href="#TimesNewRomanPSMT-63" transform="translate(111.083984 0)"/>
     <use xlink:href="#TimesNewRomanPSMT-61" transform="translate(155.46875 0)"/>
     <use xlink:href="#TimesNewRomanPSMT-6c" transform="translate(199.853516 0)"/>
     <use xlink:href="#TimesNewRomanPSMT-2d" transform="translate(227.636719 0)"/>
     <use xlink:href="#TimesNewRomanPSMT-70" transform="translate(260.9375 0)"/>
     <use xlink:href="#TimesNewRomanPSMT-61" transform="translate(310.9375 0)"/>
     <use xlink:href="#TimesNewRomanPSMT-73" transform="translate(355.322266 0)"/>
     <use xlink:href="#TimesNewRomanPSMT-73" transform="translate(394.238281 0)"/>
     <use xlink:href="#TimesNewRomanPSMT-2f" transform="translate(433.154297 0)"/>
     <use xlink:href="#TimesNewRomanPSMT-67" transform="translate(460.9375 0)"/>
     <use xlink:href="#TimesNewRomanPSMT-6c" transform="translate(510.9375 0)"/>
     <use xlink:href="#TimesNewRomanPSMT-6f" transform="translate(538.720703 0)"/>
     <use xlink:href="#TimesNewRomanPSMT-62" transform="translate(588.720703 0)"/>
     <use xlink:href="#TimesNewRomanPSMT-61" transform="translate(638.720703 0)"/>
     <use xlink:href="#TimesNewRomanPSMT-6c" transform="translate(683.105469 0)"/>
     <use xlink:href="#TimesNewRomanPSMT-2d" transform="translate(710.888672 0)"/>
     <use xlink:href="#TimesNewRomanPSMT-66" transform="translate(744.189453 0)"/>
     <use xlink:href="#TimesNewRomanPSMT-61" transform="translate(777.490234 0)"/>
     <use xlink:href="#TimesNewRomanPSMT-69" transform="translate(821.875 0)"/>
     <use xlink:href="#TimesNewRomanPSMT-6c" transform="translate(849.658203 0)"/>
     <use xlink:href="#TimesNewRomanPSMT-20" transform="translate(877.441406 0)"/>
     <use xlink:href="#TimesNewRomanPSMT-72" transform="translate(902.441406 0)"/>
     <use xlink:href="#TimesNewRomanPSMT-65" transform="translate(935.742188 0)"/>
     <use xlink:href="#TimesNewRomanPSMT-63" transform="translate(980.126953 0)"/>
     <use xlink:href="#TimesNewRomanPSMT-6f" transform="translate(1024.511719 0)"/>
     <use xlink:href="#TimesNewRomanPSMT-72" transform="translate(1074.511719 0)"/>
     <use xlink:href="#TimesNewRomanPSMT-64" transform="translate(1107.8125 0)"/>
     <use xlink:href="#TimesNewRomanPSMT-73" transform="translate(1157.8125 0)"/>
     <use xlink:href="#TimesNewRomanPSMT-20" transform="translate(1196.728516 0)"/>
     <use xlink:href="#TimesNewRomanPSMT-73" transform="translate(1221.728516 0)"/>
     <use xlink:href="#TimesNewRomanPSMT-74" transform="translate(1260.644531 0)"/>
     <use xlink:href="#TimesNewRomanPSMT-65" transform="translate(1288.427734 0)"/>
     <use xlink:href="#TimesNewRomanPSMT-70" transform="translate(1332.8125 0)"/>
     <use xlink:href="#TimesNewRomanPSMT-73" transform="translate(1382.8125 0)"/>
     <use xlink:href="#TimesNewRomanPSMT-20" transform="translate(1421.728516 0)"/>
     <use xlink:href="#TimesNewRomanPSMT-77" transform="translate(1446.728516 0)"/>
     <use xlink:href="#TimesNewRomanPSMT-68" transform="translate(1518.945312 0)"/>
     <use xlink:href="#TimesNewRomanPSMT-65" transform="translate(1568.945312 0)"/>
     <use xlink:href="#TimesNewRomanPSMT-72" transform="translate(1613.330078 0)"/>
     <use xlink:href="#TimesNewRomanPSMT-65" transform="translate(1646.630859 0)"/>
     <use xlink:href="#TimesNewRomanPSMT-20" transform="translate(1691.015625 0)"/>
     <use xlink:href="#TimesNewRomanPSMT-65" transform="translate(1716.015625 0)"/>
     <use xlink:href="#TimesNewRomanPSMT-76" transform="translate(1760.400391 0)"/>
     <use xlink:href="#TimesNewRomanPSMT-65" transform="translate(1810.400391 0)"/>
     <use xlink:href="#TimesNewRomanPSMT-72" transform="translate(1854.785156 0)"/>
     <use xlink:href="#TimesNewRomanPSMT-79" transform="translate(1888.085938 0)"/>
     <use xlink:href="#TimesNewRomanPSMT-20" transform="translate(1938.085938 0)"/>
     <use xlink:href="#TimesNewRomanPSMT-6c" transform="translate(1963.085938 0)"/>
     <use xlink:href="#TimesNewRomanPSMT-6f" transform="translate(1990.869141 0)"/>
     <use xlink:href="#TimesNewRomanPSMT-63" transform="translate(2040.869141 0)"/>
     <use xlink:href="#TimesNewRomanPSMT-61" transform="translate(2085.253906 0)"/>
     <use xlink:href="#TimesNewRomanPSMT-6c" transform="translate(2129.638672 0)"/>
     <use xlink:href="#TimesNewRomanPSMT-20" transform="translate(2157.421875 0)"/>
     <use xlink:href="#TimesNewRomanPSMT-72" transform="translate(2182.421875 0)"/>
     <use xlink:href="#TimesNewRomanPSMT-65" transform="translate(2215.722656 0)"/>
     <use xlink:href="#TimesNewRomanPSMT-71" transform="translate(2260.107422 0)"/>
     <use xlink:href="#TimesNewRomanPSMT-75" transform="translate(2310.107422 0)"/>
     <use xlink:href="#TimesNewRomanPSMT-65" transform="translate(2360.107422 0)"/>
     <use xlink:href="#TimesNewRomanPSMT-73" transform="translate(2404.492188 0)"/>
     <use xlink:href="#TimesNewRomanPSMT-74" transform="translate(2443.408203 0)"/>
     <use xlink:href="#TimesNewRomanPSMT-20" transform="translate(2471.191406 0)"/>
     <use xlink:href="#TimesNewRomanPSMT-70" transform="translate(2496.191406 0)"/>
     <use xlink:href="#TimesNewRomanPSMT-61" transform="translate(2546.191406 0)"/>
     <use xlink:href="#TimesNewRomanPSMT-73" transform="translate(2590.576172 0)"/>
     <use xlink:href="#TimesNewRomanPSMT-73" transform="translate(2629.492188 0)"/>
     <use xlink:href="#TimesNewRomanPSMT-65" transform="translate(2668.408203 0)"/>
     <use xlink:href="#TimesNewRomanPSMT-73" transform="translate(2712.792969 0)"/>
     <use xlink:href="#TimesNewRomanPSMT-20" transform="translate(2751.708984 0)"/>
     <use xlink:href="#TimesNewRomanPSMT-62" transform="translate(2776.708984 0)"/>
     <use xlink:href="#TimesNewRomanPSMT-75" transform="translate(2826.708984 0)"/>
     <use xlink:href="#TimesNewRomanPSMT-74" transform="translate(2876.708984 0)"/>
     <use xlink:href="#TimesNewRomanPSMT-20" transform="translate(2904.492188 0)"/>
     <use xlink:href="#TimesNewRomanPSMT-74" transform="translate(2929.492188 0)"/>
     <use xlink:href="#TimesNewRomanPSMT-68" transform="translate(2957.275391 0)"/>
     <use xlink:href="#TimesNewRomanPSMT-65" transform="translate(3007.275391 0)"/>
     <use xlink:href="#TimesNewRomanPSMT-20" transform="translate(3051.660156 0)"/>
     <use xlink:href="#TimesNewRomanPSMT-61" transform="translate(3076.660156 0)"/>
     <use xlink:href="#TimesNewRomanPSMT-67" transform="translate(3121.044922 0)"/>
     <use xlink:href="#TimesNewRomanPSMT-67" transform="translate(3171.044922 0)"/>
     <use xlink:href="#TimesNewRomanPSMT-72" transform="translate(3221.044922 0)"/>
     <use xlink:href="#TimesNewRomanPSMT-65" transform="translate(3254.345703 0)"/>
     <use xlink:href="#TimesNewRomanPSMT-67" transform="translate(3298.730469 0)"/>
     <use xlink:href="#TimesNewRomanPSMT-61" transform="translate(3348.730469 0)"/>
     <use xlink:href="#TimesNewRomanPSMT-74" transform="translate(3393.115234 0)"/>
     <use xlink:href="#TimesNewRomanPSMT-65" transform="translate(3420.898438 0)"/>
     <use xlink:href="#TimesNewRomanPSMT-20" transform="translate(3465.283203 0)"/>
     <use xlink:href="#TimesNewRomanPSMT-73" transform="translate(3490.283203 0)"/>
     <use xlink:href="#TimesNewRomanPSMT-74" transform="translate(3529.199219 0)"/>
     <use xlink:href="#TimesNewRomanPSMT-61" transform="translate(3556.982422 0)"/>
     <use xlink:href="#TimesNewRomanPSMT-74" transform="translate(3601.367188 0)"/>
     <use xlink:href="#TimesNewRomanPSMT-65" transform="translate(3629.150391 0)"/>
     <use xlink:href="#TimesNewRomanPSMT-20" transform="translate(3673.535156 0)"/>
     <use xlink:href="#TimesNewRomanPSMT-69" transform="translate(3698.535156 0)"/>
     <use xlink:href="#TimesNewRomanPSMT-73" transform="translate(3726.318359 0)"/>
     <use xlink:href="#TimesNewRomanPSMT-20" transform="translate(3765.234375 0)"/>
     <use xlink:href="#TimesNewRomanPSMT-75" transform="translate(3790.234375 0)"/>
     <use xlink:href="#TimesNewRomanPSMT-6e" transform="translate(3840.234375 0)"/>
     <use xlink:href="#TimesNewRomanPSMT-73" transform="translate(3890.234375 0)"/>
     <use xlink:href="#TimesNewRomanPSMT-61" transform="translate(3929.150391 0)"/>
     <use xlink:href="#TimesNewRomanPSMT-66" transform="translate(3973.535156 0)"/>
     <use xlink:href="#TimesNewRomanPSMT-65" transform="translate(4006.835938 0)"/>
     <use xlink:href="#TimesNewRomanPSMT-2e" transform="translate(4051.220703 0)"/>
    </g>
   </g>
  </g>
 </g>
 <defs>
  <clipPath id="pa739f603cc">
   <rect x="7.2" y="7.2" width="401.76" height="216.216"/>
  </clipPath>
 </defs>
</svg>
